<?xml version="1.0" encoding="utf-8"?>
<!-- Generator: Adobe Illustrator 23.0.1, SVG Export Plug-In . SVG Version: 6.00 Build 0)  -->
<svg version="1.1" id="Layer_1" xmlns="http://www.w3.org/2000/svg" xmlns:xlink="http://www.w3.org/1999/xlink" x="0px" y="0px"
	 viewBox="0 0 45.7 51.5" style="enable-background:new 0 0 45.7 51.5;" xml:space="preserve">
<style type="text/css">
	.st0{fill:#6d3eff;}
</style>
<g id="Layer_2_1_">
</g>
<path class="st0" d="M33.9,23.7c1.2-1.5,2-3.4,2-5.5c0-5-4.4-9.1-9.8-9.1H9.8c-1.7,0-3,1.4-3,3s1.4,3,3,3v23.4c-1.7,0-3,1.4-3,3
	c0,1.7,1.4,3,3,3h16.6c6.9,0,12.5-5.2,12.5-11.6C38.9,29.2,37,25.8,33.9,23.7z M26.1,15.2c2.1,0,3.7,1.4,3.7,3.1
	c0,1.7-1.7,3.1-3.7,3.1H15.9v-6.2H26.1z M26.4,38.6H15.9V27.4h10.3h0.3c3.6,0,6.5,2.5,6.5,5.6S30,38.6,26.4,38.6z"/>
</svg>
