<?xml version="1.0" encoding="utf-8"?>
<!-- Generator: Adobe Illustrator 23.0.1, SVG Export Plug-In . SVG Version: 6.00 Build 0)  -->
<svg version="1.1" id="Layer_1" xmlns="http://www.w3.org/2000/svg" xmlns:xlink="http://www.w3.org/1999/xlink" x="0px" y="0px"
	 viewBox="0 0 45.7 51.5" style="enable-background:new 0 0 45.7 51.5;" xml:space="preserve">
<style type="text/css">
	.st0{fill:#6d3eff;}
</style>
<g id="Layer_2_1_">
</g>
<g>
	<g>
		<path class="st0" d="M28.6,14H17.1c-1.7,0-3-1.4-3-3s1.4-3,3-3h11.4c1.7,0,3,1.4,3,3S30.2,14,28.6,14z"/>
	</g>
	<g>
		<path class="st0" d="M32.9,23.9H12.8c-1.7,0-3-1.4-3-3s1.4-3,3-3h20.1c1.7,0,3,1.4,3,3S34.6,23.9,32.9,23.9z"/>
	</g>
	<g>
		<path class="st0" d="M28.6,33.7H17.1c-1.7,0-3-1.4-3-3c0-1.7,1.4-3,3-3h11.4c1.7,0,3,1.4,3,3C31.6,32.3,30.2,33.7,28.6,33.7z"/>
	</g>
	<g>
		<path class="st0" d="M35.4,43.5h-25c-1.7,0-3-1.4-3-3s1.4-3,3-3h25c1.7,0,3,1.4,3,3S37,43.5,35.4,43.5z"/>
	</g>
</g>
</svg>
