<svg xmlns="http://www.w3.org/2000/svg" viewBox="0 0 14.7 12.7"><defs><path id="a" d="M-1771.6-1147.7h640v540h-640z"/></defs><path d="M28-370c-26.6-11.2-53.8-8.9-81.3 7.1l-82.2 52.1c-20.4 11.9-41.9 15.1-65.8 9.6-23.4-5.5-40.6-17.8-52.3-37.9-15.2-26.1-33.8-62.3-54.9-107.4-17.6-39.5-31.5-67.8-42.5-86.7-23.6-40.3-49.9-89.8-78.1-147.2-27.2-55.9-48-96-63.4-122.3-49.3-84.3-112.7-153-188.3-204.1-75.4-51-160.6-85.7-254.2-103.2-75.7-11-161.6-4.9-255.3 18.3-93.3 23.1-171.7 53-233 88.9-61.3 35.9-125.4 87.9-190.2 154.6-65.3 67.1-114.3 139.8-145.5 216.1-32.6 79.4-30.5 151.7 6.3 214.6 13.4 22.9 37.3 43.2 70.9 60.3 36.2 18.5 66.5 21 89.9 7.3 52.4-30.7 99.3-79.4 139.6-145.1 27.6-48 54-88.9 78.5-121.8 23.5-31.5 51.6-56.9 83.6-75.6 112.7-65.9 206.4-94.3 278.5-84.3 17 2.4 33.8 7.7 50.4 15.6 1.3.6 2.4 1.2 3.6 1.8 7.3 3.7 14.6 7.9 21.8 12.7 21 14.8 35.8 33.9 49.2 58.7 5.4 9.9 14 18.4 18.3 28.8 14.2 34.9-28.4 60.8-51.5 77.6-17.4 12.7-117.4 57.5-125.3 60.7l.1.2c-24.2 9.9-46.4 20.3-65.5 31.5-81.4 47.7-154.6 105-217.4 170.6-62.8 65.4-113.3 136-150.2 210.1-31.9 68.6-49.4 137.3-52 204.2-2.6 67.9 13.5 132.2 48 191.2 78.9 134.7 182 213.7 306.5 234.8 123.4 20.9 250.7-6.4 378.4-81.1 77.1-45.1 155.7-107 233.4-183.8 72.8-71.9 123.6-145.4 151.3-218.8 64.8 25.7 125.3 35.2 180 28C-174.2 58.2-105 31.2-27-14.5 16-39.6 53.4-83 84.4-143.5c32.3-63.2 34.1-120.2 5.1-169.6-16-27.4-36.7-46.5-61.5-56.9z"/><g><path d="M5.7 12.4c-.6 0-1.1-.1-1.6-.4 0 0-4-2.9-4-4.6.1-.8.5-1.4 1.2-1.8.7-.3 1.5-.2 2.1.3l.1.1c.2.3 1.4 1.6 2 1.9l.2-.2c0-.2.1-.3.3-.5.2-.2.4-.3.4-.5l.9-1.2s.3-.3.6-.7c.7-.9 2.7-3.5 3-3.8.5-.9 1.8-1.3 2.8-.8.9.6 1.3 1.8.7 2.7l-.2.3c-.2.3-1 1.3-3.2 4.1L9.6 9.2c-.1.1-.5.5-.7.8l-.2.2s-1.1 1.3-1.5 1.6c-.5.3-1 .5-1.5.6z"/></g></svg>