<?xml version="1.0" encoding="utf-8"?>
<!-- Generator: Adobe Illustrator 23.0.1, SVG Export Plug-In . SVG Version: 6.00 Build 0)  -->
<svg version="1.1" id="Layer_1" xmlns="http://www.w3.org/2000/svg" xmlns:xlink="http://www.w3.org/1999/xlink" x="0px" y="0px"
	 viewBox="0 0 45.7 51.5" style="enable-background:new 0 0 45.7 51.5;" xml:space="preserve">
<style type="text/css">
	.st0{fill:#6d3eff;}
</style>
<g id="Layer_2_1_">
</g>
<path class="st0" d="M29.5,8.1h-8.4c-1.7,0-3,1.3-3,3s1.3,3,3,3h0.9c-0.4,3-1.2,8.3-1.6,11c-0.2,1.5-0.4,2.6-0.4,2.8l-0.7,3.7l0,0.2
	c0,0.4-0.3,1.3-0.5,2c-0.2,0.6-0.3,1.2-0.3,1.5c-0.1,0.3-0.3,1.3-0.5,2.3h-1.9c-1.7,0-3,1.3-3,3s1.3,3,3,3h8.4c1.7,0,3-1.3,3-3
	s-1.3-3-3-3h-0.3c0.1-0.6,0.3-1.1,0.3-1.3c0-0.2,0.1-0.6,0.3-1c0.2-0.9,0.5-1.9,0.6-2.6l0.7-3.8c0-0.3,0.2-1.4,0.4-2.9
	c0.8-5.7,1.4-9.7,1.7-11.9h1.4c1.7,0,3-1.3,3-3S31.2,8.1,29.5,8.1z"/>
</svg>
