<?xml version="1.0" encoding="utf-8"?>
<!-- Generator: Adobe Illustrator 23.0.1, SVG Export Plug-In . SVG Version: 6.00 Build 0)  -->
<svg version="1.1" id="Layer_1" xmlns="http://www.w3.org/2000/svg" xmlns:xlink="http://www.w3.org/1999/xlink" x="0px" y="0px"
	 viewBox="0 0 45.7 51.5" style="enable-background:new 0 0 45.7 51.5;" xml:space="preserve">
<style type="text/css">
	.st0{fill:#b7c3cb;}
</style>
<g id="Layer_2_1_">
</g>
<g>
	<path class="st0" d="M35.4,14h-25c-1.7,0-3-1.4-3-3s1.4-3,3-3h25c1.7,0,3,1.4,3,3S37,14,35.4,14z"/>
</g>
<g>
	<path class="st0" d="M35.4,23.9h-25c-1.7,0-3-1.4-3-3s1.4-3,3-3h25c1.7,0,3,1.4,3,3S37,23.9,35.4,23.9z"/>
</g>
<g>
	<path class="st0" d="M35.4,33.7h-25c-1.7,0-3-1.4-3-3s1.4-3,3-3h25c1.7,0,3,1.4,3,3S37,33.7,35.4,33.7z"/>
</g>
<g>
	<path class="st0" d="M35.4,43.5h-25c-1.7,0-3-1.4-3-3s1.4-3,3-3h25c1.7,0,3,1.4,3,3S37,43.5,35.4,43.5z"/>
</g>
</svg>
