<?xml version="1.0" encoding="utf-8"?>
<!-- Generator: Adobe Illustrator 23.0.1, SVG Export Plug-In . SVG Version: 6.00 Build 0)  -->
<svg version="1.1" id="Layer_1" xmlns="http://www.w3.org/2000/svg" xmlns:xlink="http://www.w3.org/1999/xlink" x="0px" y="0px"
	 viewBox="0 0 45.7 51.5" style="enable-background:new 0 0 45.7 51.5;" xml:space="preserve">
<style type="text/css">
	.st0{fill:#b7c3cb;}
</style>
<g id="Layer_2_1_">
</g>
<g>
	<g>
		<path class="st0" d="M21.8,14H10.4c-1.7,0-3-1.4-3-3s1.4-3,3-3h11.4c1.7,0,3,1.4,3,3S23.5,14,21.8,14z"/>
	</g>
	<g>
		<path class="st0" d="M30.5,23.9H10.4c-1.7,0-3-1.4-3-3s1.4-3,3-3h20.1c1.7,0,3,1.4,3,3S32.1,23.9,30.5,23.9z"/>
	</g>
	<g>
		<path class="st0" d="M21.8,33.7H10.4c-1.7,0-3-1.4-3-3c0-1.7,1.4-3,3-3h11.4c1.7,0,3,1.4,3,3C24.8,32.3,23.5,33.7,21.8,33.7z"/>
	</g>
	<g>
		<path class="st0" d="M35.4,43.5h-25c-1.7,0-3-1.4-3-3s1.4-3,3-3h25c1.7,0,3,1.4,3,3S37,43.5,35.4,43.5z"/>
	</g>
</g>
</svg>
