<svg xmlns="http://www.w3.org/2000/svg"
	xmlns:xlink="http://www.w3.org/1999/xlink" viewBox="0 0 15 16">
	<g id="Layer_1">
		<defs>
			<path id="SVGID_49_" d="M-1650.5-1148h640v540h-640z" />
		</defs>
		<clipPath id="SVGID_2_">
			<use xlink:href="#SVGID_49_" overflow="visible" />
		</clipPath>
		<path
			d="M149.1-370.3c-26.6-11.2-53.8-8.9-81.3 7.1L-14.4-311c-20.4 11.9-41.9 15.1-65.8 9.6-23.4-5.5-40.6-17.8-52.3-37.9-15.2-26.1-33.8-62.3-54.9-107.4-17.6-39.5-31.5-67.8-42.5-86.7-23.6-40.3-49.9-89.8-78.1-147.2-27.2-55.9-48-96-63.4-122.3-49.3-84.3-112.7-153-188.3-204.1-75.4-51-160.6-85.7-254.2-103.2-75.7-11-161.6-4.9-255.3 18.3-93.3 23.1-171.7 53-233 88.9-61.3 35.9-125.4 87.9-190.2 154.6-65.3 67.1-114.3 139.8-145.5 216.1-32.6 79.4-30.5 151.7 6.3 214.6 13.4 22.9 37.3 43.2 70.9 60.3 36.2 18.5 66.5 21 89.9 7.3 52.4-30.7 99.3-79.4 139.6-145.1 27.6-48 54-88.9 78.5-121.8 23.5-31.5 51.6-56.9 83.6-75.6 112.7-65.9 206.4-94.3 278.5-84.3 17 2.4 33.8 7.7 50.4 15.6 1.3.6 2.4 1.2 3.6 1.8 7.3 3.7 14.6 7.9 21.8 12.7 21 14.8 35.8 33.9 49.2 58.7 5.4 9.9 14 18.4 18.3 28.8 14.2 34.9-28.4 60.8-51.5 77.6-17.4 12.7-117.4 57.5-125.3 60.7l.1.2c-24.2 9.9-46.4 20.3-65.5 31.5-81.4 47.7-154.6 105-217.4 170.6-62.8 65.4-113.3 136-150.2 210.1-31.9 68.6-49.4 137.3-52 204.2-2.6 67.9 13.5 132.2 48 191.2 78.9 134.7 182 213.7 306.5 234.8 123.4 20.9 250.7-6.4 378.4-81.1 77.1-45.1 155.7-107 233.4-183.8 72.8-71.9 123.6-145.4 151.3-218.8 64.8 25.7 125.3 35.2 180 28 58.4-7.7 127.6-34.7 205.7-80.4 42.9-25.1 80.4-68.6 111.4-129 32.3-63.2 34.1-120.2 5.1-169.6-16-27.7-36.8-46.8-61.6-57.2z"
			clip-path="url(#SVGID_2_)" fill="#e5ad23" />
		<path
			d="M-48.4-241.7c-18.9-8-38.1-6.3-57.5 5.1l-58.1 36.9c-14.4 8.4-29.7 10.7-46.6 6.8-16.6-3.9-28.7-12.6-37-26.8-10.8-18.4-23.9-44.1-38.9-76-12.5-27.9-22.3-48-30.1-61.3-16.7-28.5-35.3-63.6-55.3-104.1-19.3-39.6-33.9-67.9-44.9-86.6-34.9-59.6-79.8-108.2-133.2-144.5-53.3-36.1-113.7-60.6-179.9-73-53.6-7.8-114.4-3.5-180.6 13-66 16.4-121.5 37.5-164.9 62.9-43.4 25.4-88.7 62.2-134.6 109.4-46.2 47.5-80.9 98.9-103 152.9-23.1 56.2-21.6 107.3 4.5 151.9 9.5 16.2 26.4 30.6 50.2 42.7 25.6 13.1 47.1 14.8 63.6 5.1 37.1-21.7 70.3-56.2 98.8-102.7 19.5-33.9 38.2-62.9 55.5-86.2 16.6-22.3 36.5-40.3 59.2-53.5 79.7-46.7 146-66.7 197.1-59.6 12.1 1.7 23.9 5.4 35.6 11 .9.4 1.7.9 2.6 1.3 5.2 2.6 10.3 5.6 15.4 9 14.8 10.5 25.3 24 34.8 41.5 3.8 7 9.9 13 12.9 20.4 10.1 24.7-20.1 43-36.4 54.9-12.3 9-83.1 40.7-88.7 42.9l.1.1c-17.2 7-32.8 14.4-46.3 22.3-57.6 33.7-109.4 74.3-153.9 120.7-44.4 46.3-80.2 96.2-106.3 148.7-22.6 48.6-34.9 97.2-36.8 144.5-1.8 48 9.6 93.6 34 135.3 55.8 95.3 128.8 151.2 216.9 166.1 87.3 14.8 177.4-4.5 267.8-57.4 54.6-31.9 110.2-75.7 165.2-130.1C-415.7 151-379.7 99-360.1 47.1c45.9 18.2 88.7 24.9 127.4 19.8 41.3-5.4 90.3-24.5 145.5-56.9C-56.9-7.9-30.4-38.6-8.5-81.4c22.8-44.7 24.1-85.1 3.6-120-11.3-19.4-26-32.9-43.5-40.3z"
			clip-path="url(#SVGID_2_)" fill="#e5ad23" />
		<g>
			<path class="st78"
				d="M9.5 8.5c-1.4.1-2.7.1-4 0-.4 0-.3.5 0 .5 1.4.1 2.7.1 4 0 .3.1.3-.5 0-.5zM5.4 7.2c1.4.1 2.7.1 4 0 .3 0 .4-.6 0-.5-1.4.1-2.7.1-4 0-.3-.1-.3.4 0 .5zM8.3 10.5c-1 .1-1.9.1-2.9 0-.3 0-.3.5 0 .5 1 .1 1.9.1 2.9 0 .4 0 .4-.5 0-.5z" />
			<path class="st78"
				d="M13.5 1.9c0-.1 0-.1-.1-.2 0-.5-.2-1-.9-.9-1 .1-2.1.1-3.2.2V.5c0-.2-.1-.4-.4-.4h-.1-.7L7.5 0H6.2c-.2 0-.4.2-.4.4V1C4.6 1 3.4.9 2.3.8c-.4 0-.7.2-.8.5-.2.1-.3.3-.3.6.3 4.3.3 8.6 0 12.9 0 .5.3.7.6.8.1.1.2.1.4.1 3.5.3 6.9.2 10.4 0 .1 0 .2 0 .3-.1 0 0 .1 0 .1-.1.3-.1.5-.4.5-.8.3-4.1.3-8.4 0-12.8zM3.1 14c.2-3.8.2-7.6 0-11.4.9.2 1.8.2 2.6.2v.8c0 .3.3.5.6.5h2.3c.4-.1.6-.3.6-.5v-.8c.8 0 1.7-.1 2.5-.1.2 3.8.2 7.6 0 11.3-2.8.2-5.7.2-8.6 0z" />
		</g>
	</g>
</svg>