<svg xmlns="http://www.w3.org/2000/svg" xmlns:xlink="http://www.w3.org/1999/xlink" viewBox="0 0 17 17">
  <defs/>
  <g id="Layer_1">
    <defs>
      <path id="SVGID_49_" d="M-1705.5-1147.5h640v540h-640z"/>
    </defs>
    <clipPath id="SVGID_2_">
      <use xlink:href="#SVGID_49_" overflow="visible"/>
    </clipPath>
    <path d="M94.1-369.8c-26.6-11.2-53.8-8.9-81.3 7.1l-82.2 52.1c-20.4 11.9-41.9 15.1-65.8 9.6-23.4-5.5-40.6-17.8-52.3-37.9-15.2-26.1-33.8-62.3-54.9-107.4-17.6-39.5-31.5-67.8-42.5-86.7-23.6-40.3-49.9-89.8-78.1-147.2-27.2-55.9-48-96-63.4-122.3-49.3-84.3-112.7-153-188.3-204.1-75.4-51-160.6-85.7-254.2-103.2-75.7-11-161.6-4.9-255.3 18.3-93.3 23.1-171.7 53-233 88.9-61.3 35.9-125.4 87.9-190.2 154.6-65.3 67.1-114.3 139.8-145.5 216.1-32.6 79.4-30.5 151.7 6.3 214.6 13.4 22.9 37.3 43.2 70.9 60.3 36.2 18.5 66.5 21 89.9 7.3 52.4-30.7 99.3-79.4 139.6-145.1 27.6-48 54-88.9 78.5-121.8 23.5-31.5 51.6-56.9 83.6-75.6 112.7-65.9 206.4-94.3 278.5-84.3 17 2.4 33.8 7.7 50.4 15.6 1.3.6 2.4 1.2 3.6 1.8 7.3 3.7 14.6 7.9 21.8 12.7 21 14.8 35.8 33.9 49.2 58.7 5.4 9.9 14 18.4 18.3 28.8 14.2 34.9-28.4 60.8-51.5 77.6-17.4 12.7-117.4 57.5-125.3 60.7l.1.2c-24.2 9.9-46.4 20.3-65.5 31.5-81.4 47.7-154.6 105-217.4 170.6-62.8 65.4-113.3 136-150.2 210.1-31.9 68.6-49.4 137.3-52 204.2-2.6 67.9 13.5 132.2 48 191.2 78.9 134.7 182 213.7 306.5 234.8 123.4 20.9 250.7-6.4 378.4-81.1 77.1-45.1 155.7-107 233.4-183.8 72.8-71.9 123.6-145.4 151.3-218.8 64.8 25.7 125.3 35.2 180 28 58.4-7.7 127.6-34.7 205.7-80.4 42.9-25.1 80.4-68.6 111.4-129 32.3-63.2 34.1-120.2 5.1-169.6-16-27.6-36.8-46.7-61.6-57.1z" clip-path="url(#SVGID_2_)" />
    <path d="M16 14.2c-1.4-1.7-2.9-3.2-4.5-4.7.6-1 .9-2.2.9-3.7 0-.4 0-.8-.1-1.3-.1-.6-.3-1-.5-1.3-.6-1.1-1.4-1.9-2.4-2.5-.9-.5-2-.8-3.3-.8-.7 0-1.5.2-2.3.5-.9.3-1.6.8-2 1.4C1 2.8.5 3.8.3 4.9.1 5.9.1 7 .5 8.3c.1.4.2.7.4 1 .5 1 1.2 1.7 2.1 2.3 1 .6 2 1 3.1 1 1.2 0 2.3-.3 3.2-.8 1.6 1.5 3.1 3 4.5 4.7.5.7 1.7.6 2.2 0 .7-.7.6-1.6 0-2.3zM4.5 9.3c-.5-.4-.8-.7-1.1-1.2-.1-.2-.1-.4-.2-.6C3 6.7 2.9 6 3 5.4c.1-.7.5-1.3 1-2 0 0 .2-.2.8-.5.5-.2.9-.3 1.3-.3.8 0 1.5.1 2 .4.5.4.9.9 1.3 1.5 0 0 .1.1.1.5.1.3.1.6.1.8 0 1-.2 1.7-.5 2.3-.6 1-1.8 1.6-3.1 1.6-.4.1-.9-.1-1.5-.4z"/>
  </g>
</svg>
