<?xml version="1.0" encoding="utf-8"?>
<!-- Generator: Adobe Illustrator 23.0.1, SVG Export Plug-In . SVG Version: 6.00 Build 0)  -->
<svg version="1.1" id="Layer_1" xmlns="http://www.w3.org/2000/svg" xmlns:xlink="http://www.w3.org/1999/xlink" x="0px" y="0px"
	 viewBox="0 0 45.7 51.5" style="enable-background:new 0 0 45.7 51.5;" xml:space="preserve">
<style type="text/css">
	.st0{fill:#b7c3cb}
</style>
<g id="Layer_2_1_">
</g>
<g>
	<path class="st0" d="M33,38.2c-6.7-0.4-13.5-0.4-20.2,0.1c-3.4,0.2-3.4,5.5,0,5.3c6.7-0.5,13.5-0.5,20.2-0.1
		C36.4,43.7,36.4,38.5,33,38.2z"/>
	<path class="st0" d="M37.2,7.9h-8.5c-1.7,0-3.1,1.4-3.1,3.1S27,14,28.7,14h1.2v7.3c0,3.9-3.2,7.1-7,7.1s-7-3.2-7-7.1V14H17
		c1.7,0,3.1-1.4,3.1-3.1S18.7,7.9,17,7.9H8.5c-1.7,0-3.1,1.4-3.1,3.1S6.8,14,8.5,14h1.2v7.3c0,7.3,5.9,13.2,13.2,13.2
		c7.3,0,13.2-5.9,13.2-13.2V14h1.2c1.7,0,3.1-1.4,3.1-3.1S38.9,7.9,37.2,7.9z"/>
</g>
</svg>
