<?xml version="1.0" encoding="utf-8"?>
<!-- Generator: Adobe Illustrator 23.0.1, SVG Export Plug-In . SVG Version: 6.00 Build 0)  -->
<svg version="1.1" id="Layer_1" xmlns="http://www.w3.org/2000/svg" xmlns:xlink="http://www.w3.org/1999/xlink" x="0px" y="0px"
	 viewBox="0 0 45.7 51.5" style="enable-background:new 0 0 45.7 51.5;" xml:space="preserve">
<style type="text/css">
	.st0{fill:#fff;}
</style>
<g id="Layer_2_1_">
</g>
<g>
	<g>
		<path class="st0" d="M29.1,21.9c-0.3,0-0.6,0.1-0.6,0.5c0,0.4,0,0.8,0,1.2c0,0.4-0.1,6.9-0.1,7.9c0,0.5,0,1.1,0.1,1.6
			c0.1,0.9-0.2,1.8-1,2.3c-0.9,0.7-1.3,0.6-2.4,0.6c-1.5,0-4.3,0.3-4.9,0.1c-1.4-0.2-2.6-1.1-2.7-2.9c0-2.1,0.1-7.3,0.1-10.9
			c0-0.3-0.1-0.6-0.3-0.8c-0.2-0.2-0.5-0.2-0.8-0.2c-0.4,0-1.7-0.1-2.1,0c-0.7,0-1.4,0.2-2,0.2c-0.3,0-0.6,0-0.8-0.1
			c-0.1,0-0.3-0.1-0.4-0.2c-0.1,0-0.3-0.2-0.4-0.2C9.4,20.2,9,18.3,10,16.9l0.5-0.7c0.8-1.1,1.6-2,2.5-3l2.2-2.3
			c0.5-0.5,1.1-1.2,1.8-1.8c0.3-0.3,0.5-0.5,0.7-0.6c1-1,2.1-2,3.2-3c1.2-1.2,2.8-1,3.7-0.2c1.4,1.3,2.5,2.2,3.7,3.4
			c0.1,0.1,0.4,0.4,0.7,0.6c0.7,0.6,1.3,1.2,1.7,1.7l2.4,2.5c0.8,0.9,1.6,1.9,2.4,3l0.5,0.7c0.9,1.4,0.5,3.2-0.8,4.2
			c-0.6,0.4-1.4,0.4-2.1,0.5c-0.4,0-0.9,0.1-1.3,0.1C31.1,21.9,29.5,21.9,29.1,21.9z"/>
		<g>
			<path class="st0" d="M9.5,46.8c9-0.8,17.8-0.8,26.8-0.1c3.5,0.3,3.5-5.2,0-5.5c-9-0.7-17.8-0.7-26.8,0.1
				C5.9,41.6,5.9,47.1,9.5,46.8L9.5,46.8z"/>
		</g>
	</g>
</g>
</svg>
