<svg xmlns="http://www.w3.org/2000/svg" xmlns:xlink="http://www.w3.org/1999/xlink" viewBox="0 0 410 180">
  <defs>
    <path id="SVGID_85_" d="M-1431.6-659.4h1680v1205h-1680z"/>
  </defs>
  <g id="Layer_1">
    <defs>
      <path id="SVGID_83_" d="M-354.9-108.8c-.4-.2-.9-.1-1.2.3-.2.2-.4.5-.5.8-.2.7-.1 1.4.2 2.1.7 1.8 2.2 3.1 3.7 3.6.4.1.8.2 1.2.2.5 0 1.5.1 1.8-.6.2-.6-.2-1.3-.5-1.8-.6-1-1.4-1.8-2.2-2.5l-1.2-.9c-.4-.3-.7-.8-1.2-1 0-.2 0-.2-.1-.2"/>
    </defs>
    <clipPath id="SVGID_2_">
      <use xlink:href="#SVGID_83_" overflow="visible"/>
    </clipPath>
    <g clip-path="url(#SVGID_2_)">
      <defs>
        <use xlink:href="#SVGID_85_"/>
      </defs>
      <clipPath id="SVGID_4_">
        <use xlink:href="#SVGID_85_" overflow="visible"/>
      </clipPath>
    </g>
    <defs>
      <path id="SVGID_87_" d="M-349.6-111.5c1.4 1 2.6 3 4.4 3.6 1.4-.1 2.1-1.2 3.4-1.5 4.2-1 8.4.2 11.8-1.8 2.4-1.5 6.6-5.3.6-6.8-4.1-1-8.2-1.3-11-.2-2.8 1-5.7 6.4-9.2 6.7"/>
    </defs>
    <clipPath id="SVGID_6_">
      <use xlink:href="#SVGID_87_" overflow="visible"/>
    </clipPath>
    <g clip-path="url(#SVGID_6_)">
      <defs>
        <use id="SVGID_89_" xlink:href="#SVGID_85_"/>
      </defs>
      <clipPath id="SVGID_8_">
        <use xlink:href="#SVGID_89_" overflow="visible"/>
      </clipPath>
    </g>
    <defs>
      <path id="SVGID_91_" d="M-346.8-133c-.4-.2-.9-.1-1.2.3-.2.2-.4.5-.5.8-.2.7-.1 1.4.2 2.1.7 1.8 2.2 3.1 3.7 3.6.4.1.8.2 1.2.2.5 0 1.5.1 1.8-.6.2-.6-.2-1.3-.5-1.8-.6-1-1.4-1.8-2.2-2.5l-1.2-.9c-.4-.3-.7-.8-1.2-1 0-.2-.1-.2-.1-.2"/>
    </defs>
    <clipPath id="SVGID_10_">
      <use xlink:href="#SVGID_91_" overflow="visible"/>
    </clipPath>
    <g clip-path="url(#SVGID_10_)">
      <defs>
        <use id="SVGID_93_" xlink:href="#SVGID_85_"/>
      </defs>
      <clipPath id="SVGID_12_">
        <use xlink:href="#SVGID_93_" overflow="visible"/>
      </clipPath>
    </g>
    <defs>
      <path id="SVGID_95_" d="M-343.5-134.7c1.4 1 2.6 3 4.4 3.6 1.4-.1 2.1-1.2 3.4-1.5 4.2-1 8.4.2 11.8-1.8 2.4-1.5 6.6-5.3.6-6.8-4.1-1-8.2-1.3-11-.2-2.9 1-5.7 6.4-9.2 6.7"/>
    </defs>
    <clipPath id="SVGID_14_">
      <use xlink:href="#SVGID_95_" overflow="visible"/>
    </clipPath>
    <g clip-path="url(#SVGID_14_)">
      <defs>
        <use id="SVGID_97_" xlink:href="#SVGID_85_"/>
      </defs>
      <clipPath id="SVGID_16_">
        <use xlink:href="#SVGID_97_" overflow="visible"/>
      </clipPath>
    </g>
    <g>
      <defs>
        <path id="SVGID_99_" d="M-308.4-129c-.4-.1-.9-.1-1.2.2-.2.1-.4.3-.5.4-.2.4-.1.8.2 1.2.7 1.1 2.2 1.8 3.7 2.1.4.1.8.1 1.2.1.5 0 1.5.1 1.8-.3.2-.3-.2-.8-.5-1-.6-.6-1.4-1-2.2-1.4-.4-.2-.8-.4-1.2-.5-.4-.2-.7-.4-1.2-.6 0-.2-.1-.2-.1-.2"/>
      </defs>
      <clipPath id="SVGID_18_">
        <use xlink:href="#SVGID_99_" overflow="visible"/>
      </clipPath>
      <g clip-path="url(#SVGID_18_)">
        <defs>
          <use id="SVGID_101_" xlink:href="#SVGID_85_"/>
        </defs>
        <clipPath id="SVGID_20_">
          <use xlink:href="#SVGID_101_" overflow="visible"/>
        </clipPath>
      </g>
    </g>
    <g>
      <defs>
        <path id="SVGID_103_" d="M-306.1-129.3c1 .9 1.9 2.7 3.2 3.3 1-.1 1.5-1.1 2.5-1.4 3.1-.9 6.2.2 8.7-1.7 1.7-1.3 4.9-4.8.4-6.2-3-.9-6-1.1-8.2-.1-2 .9-4 5.8-6.6 6.1"/>
      </defs>
      <clipPath id="SVGID_22_">
        <use xlink:href="#SVGID_103_" overflow="visible"/>
      </clipPath>
      <g clip-path="url(#SVGID_22_)">
        <defs>
          <use id="SVGID_105_" xlink:href="#SVGID_85_"/>
        </defs>
        <clipPath id="SVGID_24_">
          <use xlink:href="#SVGID_105_" overflow="visible"/>
        </clipPath>
      </g>
    </g>
    <g>
      <defs>
        <path id="SVGID_107_" d="M-303.4-147.2c-.4-.1-.9-.1-1.2.2-.2.1-.4.3-.5.4-.2.4-.1.8.2 1.2.7 1.1 2.2 1.8 3.7 2.1.4.1.8.1 1.2.1.5 0 1.5.1 1.8-.3.2-.3-.2-.8-.5-1-.6-.6-1.4-1-2.2-1.4-.4-.2-.8-.4-1.2-.5-.4-.2-.7-.4-1.2-.6 0-.1 0-.2-.1-.2"/>
      </defs>
      <clipPath id="SVGID_26_">
        <use xlink:href="#SVGID_107_" overflow="visible"/>
      </clipPath>
      <g clip-path="url(#SVGID_26_)">
        <defs>
          <use id="SVGID_109_" xlink:href="#SVGID_85_"/>
        </defs>
        <clipPath id="SVGID_28_">
          <use xlink:href="#SVGID_109_" overflow="visible"/>
        </clipPath>
      </g>
    </g>
    <g>
      <defs>
        <path id="SVGID_111_" d="M-301.1-148.5c1.1.9 1.9 2.7 3.2 3.3 1-.1 1.5-1.1 2.5-1.4 3.1-.9 6.2.2 8.7-1.7 1.7-1.3 4.9-4.8.4-6.2-3-.9-6-1.1-8.2-.1-1.9.9-4 5.8-6.6 6.1"/>
      </defs>
      <clipPath id="SVGID_30_">
        <use xlink:href="#SVGID_111_" overflow="visible"/>
      </clipPath>
      <g clip-path="url(#SVGID_30_)">
        <defs>
          <use id="SVGID_113_" xlink:href="#SVGID_85_"/>
        </defs>
        <clipPath id="SVGID_32_">
          <use xlink:href="#SVGID_113_" overflow="visible"/>
        </clipPath>
      </g>
    </g>
    <g>
      <defs>
        <path id="SVGID_115_" d="M-271.8-145.2c-.2-.1-.5 0-.7.1l-.3.3c-.1.3 0 .6.1.9.4.8 1.3 1.3 2.1 1.5.2.1.5.1.7.1.3 0 .9.1 1-.3.1-.3-.1-.6-.3-.8-.4-.4-.8-.8-1.3-1.1-.2-.1-.4-.3-.7-.4-.2-.1-.4-.3-.7-.4l.1.1"/>
      </defs>
      <clipPath id="SVGID_34_">
        <use xlink:href="#SVGID_115_" overflow="visible"/>
      </clipPath>
      <g clip-path="url(#SVGID_34_)">
        <defs>
          <use id="SVGID_117_" xlink:href="#SVGID_85_"/>
        </defs>
        <clipPath id="SVGID_36_">
          <use xlink:href="#SVGID_117_" overflow="visible"/>
        </clipPath>
      </g>
    </g>
    <g>
      <defs>
        <path id="SVGID_119_" d="M-269.8-147.5c.9.7 1.6 1.9 2.7 2.3.8-.1 1.3-.8 2.1-1 2.6-.7 5.1.2 7.2-1.2 1.4-.9 4-3.4.4-4.4-2.5-.7-5-.8-6.7-.1-1.8.8-3.5 4.2-5.7 4.4"/>
      </defs>
      <clipPath id="SVGID_38_">
        <use xlink:href="#SVGID_119_" overflow="visible"/>
      </clipPath>
      <g clip-path="url(#SVGID_38_)">
        <defs>
          <use id="SVGID_121_" xlink:href="#SVGID_85_"/>
        </defs>
        <clipPath id="SVGID_40_">
          <use xlink:href="#SVGID_121_" overflow="visible"/>
        </clipPath>
      </g>
    </g>
    <g>
      <defs>
        <path id="SVGID_123_" d="M-266.7-160.3c-.2-.1-.5 0-.7.1l-.3.3c-.1.3 0 .6.1.9.4.8 1.3 1.3 2.1 1.5.2.1.5.1.7.1.3 0 .9.1 1-.3.1-.3-.1-.6-.3-.8-.4-.4-.8-.8-1.3-1.1-.2-.1-.4-.3-.7-.4-.2-.1-.4-.3-.7-.4l.1.1"/>
      </defs>
      <clipPath id="SVGID_42_">
        <use xlink:href="#SVGID_123_" overflow="visible"/>
      </clipPath>
      <g clip-path="url(#SVGID_42_)">
        <defs>
          <use id="SVGID_125_" xlink:href="#SVGID_85_"/>
        </defs>
        <clipPath id="SVGID_44_">
          <use xlink:href="#SVGID_125_" overflow="visible"/>
        </clipPath>
      </g>
    </g>
    <g>
      <defs>
        <path id="SVGID_127_" d="M-265.7-161.6c.9.7 1.6 1.9 2.7 2.3.8-.1 1.3-.8 2.1-1 2.6-.7 5.1.2 7.2-1.2 1.4-.9 4-3.4.4-4.4-2.5-.7-5-.8-6.7-.1-1.9.7-3.6 4.2-5.7 4.4"/>
      </defs>
      <clipPath id="SVGID_46_">
        <use xlink:href="#SVGID_127_" overflow="visible"/>
      </clipPath>
      <g clip-path="url(#SVGID_46_)">
        <defs>
          <use id="SVGID_129_" xlink:href="#SVGID_85_"/>
        </defs>
        <clipPath id="SVGID_48_">
          <use xlink:href="#SVGID_129_" overflow="visible"/>
        </clipPath>
      </g>
    </g>
    <path class="st120" d="M290.7 96.2c12.8-14.2 19.8-30.7 20.8-48.9.9-16.2-2.7-32.1-10.5-47.3H183.9c-.8 1.1-1.9 2-3.6 2.8-5.4 2.6-12.5 1.8-17.3 1-6-1-11.9-2.3-17.7-3.8H0v24.7c37.9 21.5 81.1 41 132 59.6 16.3 5.9 32.9 11.7 49.4 17.2 9.8 3.2 20.1 6.3 30.6 9 2 .5 4.1 1.1 6.3 1.8 7.1 2 15.1 4.3 22.2 4.3 21.6-.6 38.5-7.4 50.2-20.4zM381.1 50.6c7.4 8.9 16 11.9 27.2 9.3.6-.1 1.1-.3 1.7-.4V0h-54.6c3 6.8 6 13.7 8.8 20.5 4 9.7 9.1 20.7 16.9 30.1zM173.6 159.6c-8.3-9.1-19-15.5-31.9-18.8l-37.3-8.1c-32.1-8.4-62.7-18.3-91.2-29.5-.4-.1-2.2-.7-8.8-3.4-1.6-.6-3.1-1.2-4.5-1.6v57c7.9 3.5 17.8 7.2 29.7 10.9l17.4 5.4 3.3 1.5c3.2.9 6.3 1.8 9.5 2.8l14.7 4.2h110c0-.5 0-.9-.1-1.4-2.2-7.2-5.9-13.6-10.8-19zM371.8 179.8c2.2-4.1 4.1-8.3 6-12.5 1.3-2.9 2.6-5.7 4-8.6.9-1.7 1.9-3.5 3-5.3 1.7-2.9 3.5-6 4.6-9 3.9-10.9 5.6-20.4 5.1-28-.6-8.3-5.7-16.7-15.6-25.7-8.8-8-18.1-11.7-27.8-11.2-9.8.5-18.2 5-25.1 13.5-1.9 2.3-3.1 4.9-4.3 7.3-.7 1.4-1.3 2.7-2.1 4.1-13.3 23-25.8 48.1-37.8 75.6h90.1c-.2-.1-.1-.1-.1-.2z"/>
  </g>
</svg>
