<?xml version="1.0" encoding="utf-8"?>
<!-- Generator: Adobe Illustrator 22.1.0, SVG Export Plug-In . SVG Version: 6.00 Build 0)  -->
<svg version="1.1" xmlns="http://www.w3.org/2000/svg" xmlns:xlink="http://www.w3.org/1999/xlink" x="0px" y="0px"
	 viewBox="0 0 410 180" style="enable-background:new 0 0 410 180;" xml:space="preserve">
<style type="text/css">
	.st0{fill:none;stroke:#999999;stroke-width:0.25;stroke-miterlimit:10;}
	.st1{fill:#F7F9FA;}
	.st2{fill:#3C2F54;}
	.st3{fill:#EC1E27;}
	.st4{fill:#21B5AD;}
	.st5{fill:#BE1E2D;}
	.st6{fill:#C99C28;}
	.st7{fill:none;stroke:#C99C28;stroke-miterlimit:10;}
	.st8{fill:#574672;}
	.st9{fill:#FFFFFF;}
	.st10{fill:#36284A;}
	.st11{fill:#BE1E2D;stroke:#BE1E2D;stroke-width:12;stroke-miterlimit:10;}
	.st12{fill:#666666;}
	.st13{fill:#333333;}
	.st14{fill:#999999;}
	.st15{fill:#B3B3B3;}
	.st16{fill:#E5AD23;}
	.st17{fill:#DD5D36;}
	.st18{fill:#3BB7B3;}
	.st19{fill:#36C972;}
	.st20{fill:#6D3EFF;}
	.st21{fill:#37DDD1;}
	.st22{fill:#46E888;}
	.st23{fill:#FFCE00;}
	.st24{fill:#FF8017;}
	.st25{fill:#FF001F;}
	.st26{fill:#D30F22;}
	.st27{fill:#1EAD58;}
	.st28{clip-path:url(#SVGID_2_);fill:#3C2F54;}
	.st29{clip-path:url(#SVGID_2_);}
	.st30{clip-path:url(#SVGID_4_);fill:#3BB7B3;}
	.st31{clip-path:url(#SVGID_6_);fill:#46E888;}
	.st32{clip-path:url(#SVGID_6_);fill:#36C972;}
	.st33{clip-path:url(#SVGID_6_);}
	.st34{clip-path:url(#SVGID_8_);fill:#E5AD23;}
	.st35{clip-path:url(#SVGID_10_);fill:#DD5D36;}
	.st36{clip-path:url(#SVGID_12_);fill:#FF001F;}
	.st37{clip-path:url(#SVGID_12_);fill:#BE1E2D;}
	.st38{clip-path:url(#SVGID_12_);}
	.st39{clip-path:url(#SVGID_14_);fill:#6D3EFF;}
	.st40{clip-path:url(#SVGID_14_);}
	.st41{clip-path:url(#SVGID_16_);fill:#6D3EFF;}
	.st42{clip-path:url(#SVGID_16_);}
	.st43{clip-path:url(#SVGID_18_);fill:#37DDD1;}
	.st44{clip-path:url(#SVGID_20_);fill:#36C972;}
	.st45{clip-path:url(#SVGID_20_);fill:#46E888;}
	.st46{clip-path:url(#SVGID_20_);}
	.st47{clip-path:url(#SVGID_22_);fill:#FFCE00;}
	.st48{clip-path:url(#SVGID_24_);fill:#FF8017;}
	.st49{clip-path:url(#SVGID_26_);fill:#BE1E2D;}
	.st50{clip-path:url(#SVGID_26_);fill:#FF001F;}
	.st51{clip-path:url(#SVGID_26_);}
	.st52{clip-path:url(#SVGID_44_);}
	.st53{clip-path:url(#SVGID_46_);fill:#3BB7B3;}
	.st54{clip-path:url(#SVGID_48_);fill:#46E888;}
	.st55{clip-path:url(#SVGID_48_);}
	.st56{clip-path:url(#SVGID_50_);fill:#E5AD23;}
	.st57{clip-path:url(#SVGID_52_);}
	.st58{opacity:0.53;clip-path:url(#SVGID_54_);}
	.st59{opacity:0.53;}
	.st60{clip-path:url(#SVGID_54_);}
	.st61{clip-path:url(#SVGID_60_);fill:#3BB7B3;}
	.st62{opacity:0.61;clip-path:url(#SVGID_60_);}
	.st63{opacity:0.61;}
	.st64{clip-path:url(#SVGID_60_);}
	.st65{clip-path:url(#SVGID_60_);fill:none;}
	.st66{clip-path:url(#SVGID_60_);fill:#37DDD1;}
	.st67{fill:none;}
	.st68{opacity:0.82;}
	.st69{clip-path:url(#SVGID_68_);}
	.st70{clip-path:url(#SVGID_70_);}
	.st71{clip-path:url(#SVGID_72_);fill:#37DDD1;}
	.st72{clip-path:url(#SVGID_74_);fill:#36C972;}
	.st73{clip-path:url(#SVGID_74_);}
	.st74{clip-path:url(#SVGID_76_);fill:#E5AD23;}
	.st75{clip-path:url(#SVGID_76_);}
	.st76{clip-path:url(#SVGID_78_);fill:#FFCE00;}
	.st77{clip-path:url(#SVGID_80_);}
	.st78{fill:none;stroke:#EC1E27;stroke-width:3;stroke-linecap:round;stroke-miterlimit:10;}
	.st79{fill:#86828E;}
	.st80{fill:none;stroke:#FFFFFF;stroke-width:2;stroke-linecap:round;stroke-linejoin:round;stroke-miterlimit:10;}
	.st81{fill:none;stroke:#EC1E27;stroke-width:4;stroke-linecap:round;stroke-miterlimit:10;}
	.st82{fill:none;stroke:#EC1E27;stroke-width:2;stroke-linecap:round;stroke-miterlimit:10;}
	.st83{fill:none;stroke:#EC1E27;stroke-width:2;stroke-linecap:round;stroke-linejoin:round;stroke-miterlimit:10;}
	.st84{fill:#0066B2;}
	.st85{fill:#F9A533;}
	.st86{fill:#C0C2C4;}
	.st87{fill:#AA1A2B;}
	.st88{opacity:0.23;fill:#D0D9D9;}
	.st89{fill-rule:evenodd;clip-rule:evenodd;fill:#462F4E;}
	.st90{fill-rule:evenodd;clip-rule:evenodd;fill:#D30F22;}
	.st91{fill-rule:evenodd;clip-rule:evenodd;fill:#BE1E2D;}
	.st92{fill-rule:evenodd;clip-rule:evenodd;fill:#FF2630;}
	.st93{fill-rule:evenodd;clip-rule:evenodd;fill:#EC1E27;}
	.st94{fill-rule:evenodd;clip-rule:evenodd;fill:#6D3EFF;}
	.st95{fill-rule:evenodd;clip-rule:evenodd;fill:#FFFFFF;}
	.st96{clip-path:url(#SVGID_84_);}
	.st97{clip-path:url(#SVGID_86_);fill:#3C2F54;}
	.st98{clip-path:url(#SVGID_88_);}
	.st99{clip-path:url(#SVGID_90_);fill:#3C2F54;}
	.st100{clip-path:url(#SVGID_92_);}
	.st101{clip-path:url(#SVGID_94_);fill:#3C2F54;}
	.st102{clip-path:url(#SVGID_96_);}
	.st103{clip-path:url(#SVGID_98_);fill:#3C2F54;}
	.st104{clip-path:url(#SVGID_100_);}
	.st105{clip-path:url(#SVGID_102_);fill:#3C2F54;}
	.st106{clip-path:url(#SVGID_104_);}
	.st107{clip-path:url(#SVGID_106_);fill:#3C2F54;}
	.st108{clip-path:url(#SVGID_108_);}
	.st109{clip-path:url(#SVGID_110_);fill:#3C2F54;}
	.st110{clip-path:url(#SVGID_112_);}
	.st111{clip-path:url(#SVGID_114_);fill:#3C2F54;}
	.st112{clip-path:url(#SVGID_116_);}
	.st113{clip-path:url(#SVGID_118_);fill:#3C2F54;}
	.st114{clip-path:url(#SVGID_120_);}
	.st115{clip-path:url(#SVGID_122_);fill:#3C2F54;}
	.st116{clip-path:url(#SVGID_124_);}
	.st117{clip-path:url(#SVGID_126_);fill:#3C2F54;}
	.st118{clip-path:url(#SVGID_128_);}
	.st119{clip-path:url(#SVGID_130_);fill:#3C2F54;}
	.st120{fill-rule:evenodd;clip-rule:evenodd;fill:#958EA2;}
	.st121{fill-rule:evenodd;clip-rule:evenodd;fill:#E5AD23;}
</style>
<g id="Layer_2">
</g>
<g id="Layer_1">
	<path class="st121" d="M174.8,153.1c-18.8-24.6-40-46.7-63.3-67.1c-24.9-21.8-55-39.3-86.3-50.1C17.2,33.2,8.6,31.7,0,31.7v146.4
		c1.1,0.6,2.3,1.2,3.4,1.8c-1.1-0.6-2.3-1.2-3.4-1.7v0.6c0.6,0.4,1.3,0.8,1.9,1.2h192.4C188,170.9,181.6,161.9,174.8,153.1z"/>
	<path class="st121" d="M410,178.2c-4.3-0.3-8.6-0.9-12.9-1.5c1.9,0.5,3.8,0.9,5.8,1.3c-3.9-0.8-7.7-1.5-11.6-2.3
		c1.9,0.4,3.9,0.7,5.8,1c-10.4-2.5-20.5-5.9-30.3-10.2c1.7,0.9,3.4,1.8,5.2,2.6c-3.6-1.7-7.1-3.4-10.7-5.1c1.8,0.9,3.6,1.7,5.5,2.5
		c-12-6.3-23.3-13.8-33.8-22.2c1.4,1.2,2.7,2.5,4.1,3.7l-9.1-7.8c1.6,1.4,3.3,2.8,5,4.1c-12.9-11.6-24.5-24.7-34.6-38.8
		c1.2,1.9,2.5,3.8,3.8,5.7c-2.3-3.4-4.6-6.8-7-10.2c1,1.5,2.1,3,3.2,4.5c-18.3-28.7-29.9-60.8-41.6-92.6c-1.6-4.3-3.2-8.5-4.8-12.8
		H151.7c19.5,39.5,30.4,83,50.2,122.4c10.2,20.3,22.8,39.9,37.5,57.6H410V178.2z"/>
</g>
</svg>
