<svg xmlns="http://www.w3.org/2000/svg" viewBox="0 0 400 180">
  <defs/>
  <g id="Layer_1">
    <path class="st121" d="M174.8 153.1c-18.8-24.6-40-46.7-63.3-67.1-24.9-21.8-55-39.3-86.3-50.1-8-2.7-16.6-4.2-25.2-4.2v146.4c1.1.6 2.3 1.2 3.4 1.8-1.1-.6-2.3-1.2-3.4-1.7v.6c.6.4 1.3.8 1.9 1.2h192.4c-6.3-9.1-12.7-18.1-19.5-26.9zM410 178.2c-4.3-.3-8.6-.9-12.9-1.5 1.9.5 3.8.9 5.8 1.3-3.9-.8-7.7-1.5-11.6-2.3 1.9.4 3.9.7 5.8 1-10.4-2.5-20.5-5.9-30.3-10.2 1.7.9 3.4 1.8 5.2 2.6-3.6-1.7-7.1-3.4-10.7-5.1 1.8.9 3.6 1.7 5.5 2.5-12-6.3-23.3-13.8-33.8-22.2 1.4 1.2 2.7 2.5 4.1 3.7l-9.1-7.8c1.6 1.4 3.3 2.8 5 4.1-12.9-11.6-24.5-24.7-34.6-38.8 1.2 1.9 2.5 3.8 3.8 5.7-2.3-3.4-4.6-6.8-7-10.2 1 1.5 2.1 3 3.2 4.5-18.3-28.7-29.9-60.8-41.6-92.6-1.6-4.3-3.2-8.5-4.8-12.8H151.7c19.5 39.5 30.4 83 50.2 122.4 10.2 20.3 22.8 39.9 37.5 57.6H410v-1.9z"/>
  </g>
</svg>
