<?xml version="1.0" encoding="utf-8"?>
<!-- Generator: Adobe Illustrator 22.1.0, SVG Export Plug-In . SVG Version: 6.00 Build 0)  -->
<svg version="1.1" id="Layer_1" xmlns="http://www.w3.org/2000/svg" xmlns:xlink="http://www.w3.org/1999/xlink" x="0px" y="0px"
	 viewBox="0 0 239.7 293.2" style="enable-background:new 0 0 239.7 293.2;" xml:space="preserve">
<style type="text/css">
	.st0{fill:#3C2F54;}
	.st1{fill-rule:evenodd;clip-rule:evenodd;fill:#462F4E;}
	.st2{fill-rule:evenodd;clip-rule:evenodd;fill:#D30F22;}
	.st3{fill-rule:evenodd;clip-rule:evenodd;fill:#BE1E2D;}
	.st4{fill-rule:evenodd;clip-rule:evenodd;fill:#FF2630;}
	.st5{fill-rule:evenodd;clip-rule:evenodd;fill:#EC1E27;}
	.st6{fill-rule:evenodd;clip-rule:evenodd;fill:#6D3EFF;}
	.st7{fill-rule:evenodd;clip-rule:evenodd;fill:#FFFFFF;}
	.st8{clip-path:url(#SVGID_2_);}
	.st9{clip-path:url(#SVGID_4_);fill:#3C2F54;}
	.st10{clip-path:url(#SVGID_6_);}
	.st11{clip-path:url(#SVGID_8_);fill:#3C2F54;}
	.st12{clip-path:url(#SVGID_10_);}
	.st13{clip-path:url(#SVGID_12_);fill:#3C2F54;}
	.st14{clip-path:url(#SVGID_14_);}
	.st15{clip-path:url(#SVGID_16_);fill:#3C2F54;}
	.st16{clip-path:url(#SVGID_18_);}
	.st17{clip-path:url(#SVGID_20_);fill:#3C2F54;}
	.st18{clip-path:url(#SVGID_22_);}
	.st19{clip-path:url(#SVGID_24_);fill:#3C2F54;}
	.st20{clip-path:url(#SVGID_26_);}
	.st21{clip-path:url(#SVGID_28_);fill:#3C2F54;}
	.st22{clip-path:url(#SVGID_30_);}
	.st23{clip-path:url(#SVGID_32_);fill:#3C2F54;}
	.st24{clip-path:url(#SVGID_34_);}
	.st25{clip-path:url(#SVGID_36_);fill:#3C2F54;}
	.st26{clip-path:url(#SVGID_38_);}
	.st27{clip-path:url(#SVGID_40_);fill:#3C2F54;}
	.st28{clip-path:url(#SVGID_42_);}
	.st29{clip-path:url(#SVGID_44_);fill:#3C2F54;}
	.st30{clip-path:url(#SVGID_46_);}
	.st31{clip-path:url(#SVGID_48_);fill:#3C2F54;}
	.st32{fill:#FFFFFF;}
</style>
<g id="Layer_2_1_">
</g>
<path class="st0" d="M239.9,293.2h-240v-275h233c3.9,0,7,3.1,7,7V293.2z"/>
<g>
	<path class="st1" d="M11.5,293.2l12.1-20.7c2.8-5.6,6.3-15.4,9.3-24c1.9-5.4,3.5-10.1,4.6-12.6c2.9-6.7,15.5-41.3,16.2-47.2
		c1.3-7.2-0.2-13.5-4.2-18.7c-4-5.2-10-8.3-17.9-9.3c-8.9-1.1-15.4,0-19.9,3.3c-4,3-7.9,7.7-11.6,14.2v115H11.5z"/>
	<path class="st1" d="M114.2,278.4l-12.7-21.7c-3.9-7.9-8.4-16.1-13.4-24.2c-0.8-1.3-1.5-2.4-2.3-3.6l-0.7-1l0,0
		c-1.3-2.6-6.1-3.9-7.9-4.1c-2.7-0.3-6,0.8-8.3,2.6c-5.1,4.1-7.4,12.5-7.8,19c0,0.5,0,1.1,0,1.6c0,7,2.7,13.9,5.4,20
		c1.1,2.6,2.4,5.2,3.7,7.7l0.8,1.6c1.5,1.8,2.7,3.6,3.7,5.4l6.4,11.5H120C118.1,287.8,116,281.9,114.2,278.4z"/>
	<path class="st1" d="M141.1,256.5c2.3,1.8,5.5,2.9,8.3,2.6c1.8-0.2,6.6-1.5,7.9-4.1l0,0l0.7-1c0.8-1.2,1.5-2.4,2.3-3.6
		c5-8.2,9.5-16.3,13.4-24.2l12.7-21.7c1.9-3.7,4.1-10.1,6.1-15.8c1.2-3.5,2.3-6.6,3-8.3c1.9-4.4,10.2-27.1,10.7-31
		c0.8-4.7-0.1-8.8-2.8-12.2c-2.6-3.4-6.6-5.4-11.8-6.1c-5.8-0.7-10.1,0-13.1,2.2c-2.7,2-5.3,5.3-7.8,9.7
		c-1.5,4.9-12.1,32.9-17.3,46.4l-6.5,11.9c-1,1.8-2.2,3.6-3.7,5.4l-0.8,1.6c-1.3,2.5-2.6,5.1-3.7,7.7c-2.6,6-5.4,13-5.4,20
		c0,0.5,0,1.1,0,1.6C133.7,244,135.9,252.4,141.1,256.5z"/>
	<path class="st1" d="M2,98.8c1.8-0.2,6.6-1.5,7.9-4.1l0,0l0.7-1c0.8-1.2,1.5-2.4,2.3-3.6c5-8.2,9.5-16.3,13.4-24.2l12.7-21.7
		c1.9-3.7,4.1-10.1,6.1-15.8c1.2-3.5,2.3-6.6,3-8.3c0.2-0.4,0.4-0.9,0.6-1.5H10c-1.5,3.9-2.9,7.5-4,10.4L0.2,39.6v59.2
		C0.8,98.8,1.4,98.9,2,98.8z"/>
	<path class="st1" d="M59,113.1c1.5,1.8,2.7,3.6,3.7,5.4l6.5,11.9c5.3,13.5,15.8,41.5,17.3,46.4c2.5,4.4,5.1,7.7,7.8,9.7
		c3,2.2,7.2,2.9,13.1,2.2c5.2-0.7,9.1-2.7,11.8-6.1c2.7-3.4,3.6-7.6,2.8-12.2c-0.5-3.9-8.7-26.6-10.7-31c-0.7-1.6-1.8-4.7-3-8.3
		c-2-5.7-4.3-12.1-6.1-15.8L89.5,93.6c-3.9-7.9-8.4-16.1-13.4-24.2c-0.8-1.3-1.5-2.4-2.3-3.6l-0.7-1l0,0c-1.3-2.6-6.1-3.9-7.9-4.1
		c-2.7-0.3-6,0.8-8.3,2.6c-5.1,4.1-7.4,12.5-7.8,19c0,0.5,0,1.1,0,1.6c0,7,2.7,13.9,5.4,20c1.1,2.6,2.4,5.2,3.7,7.7L59,113.1z"/>
	<path class="st1" d="M227.7,208.1c-5.1,4.1-7.4,12.5-7.8,19c0,0.5,0,1.1,0,1.6c0,7,2.7,13.9,5.4,20c1.1,2.6,2.4,5.2,3.7,7.7
		l0.8,1.6c1.5,1.8,2.7,3.6,3.7,5.4l6.3,11.5v-68.3c-1.5-0.6-3-0.9-3.8-1C233.2,205.2,230,206.2,227.7,208.1z"/>
	<path class="st1" d="M227.7,41.3c-5.1,4.1-7.4,12.5-7.8,19c0,0.5,0,1.1,0,1.6c0,7,2.7,13.9,5.4,20c1.1,2.6,2.4,5.2,3.7,7.7l0.8,1.6
		c1.5,1.8,2.7,3.6,3.7,5.4l6.3,11.5V39.6c-1.5-0.6-3-0.9-3.8-1C233.2,38.4,230,39.4,227.7,41.3z"/>
	<path class="st1" d="M142.3,94.6L142.3,94.6l1.6-1.4c1.8-1.7,3.7-3.4,5.6-5.3c12.3-11.9,23.7-24.1,33.9-36.1l31.6-32
		c0.5-0.5,0.9-1.1,1.4-1.7h-88.8c-0.1,0.2-0.3,0.3-0.4,0.5c-7.2,9.3-15,20.1-18.1,32.2c-0.2,0.9-0.4,1.9-0.6,2.8
		c-2.2,11.4-1.9,26.9,5.1,36.3c3.1,4.2,8.3,7.4,13.2,8.2c0.8,0.1,2,0.2,3.3,0.2h0C134.1,98.4,139.7,97.6,142.3,94.6z"/>
</g>
<path class="st2" d="M134.7,67.5c33.9,3.8,64.2,33.9,79.5,64.3c2-12.6-0.7-25.2-12.8-35.9C174.7,72.1,129.2,54.7,94,67.6
	c-13.9,5.1-26.7,16.8-36.8,29.5c0,0,0,0,0,0C72.6,84,107.2,64.4,134.7,67.5z"/>
<path class="st3" d="M90.8,237.7c27.6,1.1,49.7-10.8,71.8-24.1c2.4-1.4,5.3-3,8.4-4.8c22.8-12.7,61-33.9,46.7-69.5
	c-13.3-32.9-46.2-68.6-83.5-72.8C106.7,63.5,72.1,83,56.7,96c-21.6,18.3-40.3,53.2-27.9,96.3c1.9,6.5,4.6,12.5,8.2,17.8
	C48.2,226.7,67.3,236.7,90.8,237.7z"/>
<path class="st4" d="M85.8,145c1.9,0.6,3.7,0.9,5.6,0.9c5.8,0,11.3-2.9,15.2-8.2c4.7-6.3,5.4-13.3,5.7-20.6c0-0.8,0.1-1.7,0.2-2.7
	c0.6-7.3,1.6-19.6-9.3-21.8c-10-2.1-23.9,0-30.8,8.1c-5.1,6-6,17.1-5.3,22.7C68,131.3,73.4,141.2,85.8,145z"/>
<path class="st5" d="M30.2,37.7c-2.3,3.8-2.8,8.6-1.3,12.9c0.5,1.3,2.4,0.7,1.9-0.6c-1.4-3.8-1-7.8,1.1-11.2
	C32.6,37.7,30.9,36.6,30.2,37.7z"/>
<path class="st5" d="M23.2,45.1c-0.5,3.4-0.1,6.7,1.1,9.7c0.5,1.3,2.1,0.1,1.6-1.2c-1-2.5-1.4-5.2-1-7.9
	C25.1,44.3,23.4,43.7,23.2,45.1z"/>
<path class="st6" d="M83.6,39.8v3.9c0.6,4.1,3.1,8.2,6,10.8c2.3,2,5.5,3.3,7.5,5.6c2.7,3.2,2.4,8.7,0.5,12.4
	c-2.4,4.8-9.1,6.5-11.2,11.1c4.6,2.4,10.9-4.5,14.8-6.1c13.5-5.6,29.5-6.8,43.9-9c11.5-1.7,23.7-5,34.5-9.4
	c7-2.9,11.5-8.8,12.6-16.3c0.9-6.4-4.7-16.7-8.9-21.2c-5.4-5.7-12.8-10.9-20.4-13.2c-7.4-2.3-14.8-3.7-22.5-3.5
	c-2.9,0.1-5.7,0.9-8.4,1.7c-2.9,0.9-5.8,1.5-8.8,2.1c0.7,0.1-6.4,1.6-10.6,3C100.8,15.7,85.5,26.1,83.6,39.8z"/>
<path class="st7" d="M154.4,37.3c0,3.9-1.7,7.6-4.8,10.1c-1.1,0.9,0.2,2.4,1.3,1.5c3.5-2.9,5.6-7.3,5.5-11.7
	C156.5,35.9,154.4,35.9,154.4,37.3z"/>
<path class="st7" d="M156.8,45.6c-1.1,2.6-2.8,4.7-4.9,6.3c-1.1,0.8-0.4,2.6,0.7,1.8c2.7-1.9,4.7-4.6,6-7.7
	C159.1,44.6,157.3,44.3,156.8,45.6z"/>
<g>
	<defs>
		<path id="SVGID_1_" d="M116.5,184.4c-0.4-0.2-0.9-0.1-1.2,0.3c-0.2,0.2-0.4,0.5-0.5,0.8c-0.2,0.7-0.1,1.4,0.2,2.1
			c0.7,1.8,2.2,3.1,3.7,3.6c0.4,0.1,0.8,0.2,1.2,0.2c0.5,0,1.5,0.1,1.8-0.6c0.2-0.6-0.2-1.3-0.5-1.8c-0.6-1-1.4-1.8-2.2-2.5
			c-0.4-0.3-0.8-0.6-1.2-0.9c-0.4-0.3-0.7-0.8-1.2-1C116.6,184.4,116.6,184.4,116.5,184.4"/>
	</defs>
	<clipPath id="SVGID_2_">
		<use xlink:href="#SVGID_1_"  style="overflow:visible;"/>
	</clipPath>
	<g class="st8">
		<defs>
			<rect id="SVGID_3_" x="-960.2" y="-366.2" width="1680" height="1205"/>
		</defs>
		<clipPath id="SVGID_4_">
			<use xlink:href="#SVGID_3_"  style="overflow:visible;"/>
		</clipPath>
		<rect x="109.8" y="179.3" class="st9" width="17.1" height="17.1"/>
	</g>
</g>
<g>
	<defs>
		<path id="SVGID_5_" d="M121.8,181.7c1.4,1,2.6,3,4.4,3.6c1.4-0.1,2.1-1.2,3.4-1.5c4.2-1,8.4,0.2,11.8-1.8c2.4-1.5,6.6-5.3,0.6-6.8
			c-4.1-1-8.2-1.3-11-0.2C128.2,176,125.4,181.4,121.8,181.7"/>
	</defs>
	<clipPath id="SVGID_6_">
		<use xlink:href="#SVGID_5_"  style="overflow:visible;"/>
	</clipPath>
	<g class="st10">
		<defs>
			<rect id="SVGID_7_" x="-960.2" y="-366.2" width="1680" height="1205"/>
		</defs>
		<clipPath id="SVGID_8_">
			<use xlink:href="#SVGID_7_"  style="overflow:visible;"/>
		</clipPath>
		<rect x="116.8" y="169.2" class="st11" width="33.2" height="21.1"/>
	</g>
</g>
<g>
	<defs>
		<path id="SVGID_9_" d="M124.6,160.2c-0.4-0.2-0.9-0.1-1.2,0.3c-0.2,0.2-0.4,0.5-0.5,0.8c-0.2,0.7-0.1,1.4,0.2,2.1
			c0.7,1.8,2.2,3.1,3.7,3.6c0.4,0.1,0.8,0.2,1.2,0.2c0.5,0,1.5,0.1,1.8-0.6c0.2-0.6-0.2-1.3-0.5-1.8c-0.6-1-1.4-1.8-2.2-2.5
			c-0.4-0.3-0.8-0.6-1.2-0.9c-0.4-0.3-0.7-0.8-1.2-1C124.7,160.2,124.7,160.2,124.6,160.2"/>
	</defs>
	<clipPath id="SVGID_10_">
		<use xlink:href="#SVGID_9_"  style="overflow:visible;"/>
	</clipPath>
	<g class="st12">
		<defs>
			<rect id="SVGID_11_" x="-960.2" y="-366.2" width="1680" height="1205"/>
		</defs>
		<clipPath id="SVGID_12_">
			<use xlink:href="#SVGID_11_"  style="overflow:visible;"/>
		</clipPath>
		<rect x="117.8" y="155.1" class="st13" width="17.1" height="17.1"/>
	</g>
</g>
<g>
	<defs>
		<path id="SVGID_13_" d="M127.9,158.5c1.4,1,2.6,3,4.4,3.6c1.4-0.1,2.1-1.2,3.4-1.5c4.2-1,8.4,0.2,11.8-1.8
			c2.4-1.5,6.6-5.3,0.6-6.8c-4.1-1-8.2-1.3-11-0.2C134.2,152.8,131.4,158.2,127.9,158.5"/>
	</defs>
	<clipPath id="SVGID_14_">
		<use xlink:href="#SVGID_13_"  style="overflow:visible;"/>
	</clipPath>
	<g class="st14">
		<defs>
			<rect id="SVGID_15_" x="-960.2" y="-366.2" width="1680" height="1205"/>
		</defs>
		<clipPath id="SVGID_16_">
			<use xlink:href="#SVGID_15_"  style="overflow:visible;"/>
		</clipPath>
		<rect x="122.9" y="146" class="st15" width="33.2" height="21.1"/>
	</g>
</g>
<g>
	<defs>
		<path id="SVGID_17_" d="M163,164.2c-0.4-0.1-0.9-0.1-1.2,0.2c-0.2,0.1-0.4,0.3-0.5,0.4c-0.2,0.4-0.1,0.8,0.2,1.2
			c0.7,1.1,2.2,1.8,3.7,2.1c0.4,0.1,0.8,0.1,1.2,0.1c0.5,0,1.5,0.1,1.8-0.3c0.2-0.3-0.2-0.8-0.5-1c-0.6-0.6-1.4-1-2.2-1.4
			c-0.4-0.2-0.8-0.4-1.2-0.5c-0.4-0.2-0.7-0.4-1.2-0.6C163.1,164.2,163.1,164.2,163,164.2"/>
	</defs>
	<clipPath id="SVGID_18_">
		<use xlink:href="#SVGID_17_"  style="overflow:visible;"/>
	</clipPath>
	<g class="st16">
		<defs>
			<rect id="SVGID_19_" x="-960.2" y="-366.2" width="1680" height="1205"/>
		</defs>
		<clipPath id="SVGID_20_">
			<use xlink:href="#SVGID_19_"  style="overflow:visible;"/>
		</clipPath>
		<rect x="156.2" y="159.1" class="st17" width="17.1" height="14"/>
	</g>
</g>
<g>
	<defs>
		<path id="SVGID_21_" d="M165.3,163.9c1,0.9,1.9,2.7,3.2,3.3c1-0.1,1.5-1.1,2.5-1.4c3.1-0.9,6.2,0.2,8.7-1.7
			c1.7-1.3,4.9-4.8,0.4-6.2c-3-0.9-6-1.1-8.2-0.1C170,158.7,167.9,163.6,165.3,163.9"/>
	</defs>
	<clipPath id="SVGID_22_">
		<use xlink:href="#SVGID_21_"  style="overflow:visible;"/>
	</clipPath>
	<g class="st18">
		<defs>
			<rect id="SVGID_23_" x="-960.2" y="-366.2" width="1680" height="1205"/>
		</defs>
		<clipPath id="SVGID_24_">
			<use xlink:href="#SVGID_23_"  style="overflow:visible;"/>
		</clipPath>
		<rect x="160.3" y="152.1" class="st19" width="27.2" height="20.1"/>
	</g>
</g>
<g>
	<defs>
		<path id="SVGID_25_" d="M168,146c-0.4-0.1-0.9-0.1-1.2,0.2c-0.2,0.1-0.4,0.3-0.5,0.4c-0.2,0.4-0.1,0.8,0.2,1.2
			c0.7,1.1,2.2,1.8,3.7,2.1c0.4,0.1,0.8,0.1,1.2,0.1c0.5,0,1.5,0.1,1.8-0.3c0.2-0.3-0.2-0.8-0.5-1c-0.6-0.6-1.4-1-2.2-1.4
			c-0.4-0.2-0.8-0.4-1.2-0.5c-0.4-0.2-0.7-0.4-1.2-0.6C168.2,146.1,168.1,146,168,146"/>
	</defs>
	<clipPath id="SVGID_26_">
		<use xlink:href="#SVGID_25_"  style="overflow:visible;"/>
	</clipPath>
	<g class="st20">
		<defs>
			<rect id="SVGID_27_" x="-960.2" y="-366.2" width="1680" height="1205"/>
		</defs>
		<clipPath id="SVGID_28_">
			<use xlink:href="#SVGID_27_"  style="overflow:visible;"/>
		</clipPath>
		<rect x="161.3" y="141" class="st21" width="17.1" height="14"/>
	</g>
</g>
<g>
	<defs>
		<path id="SVGID_29_" d="M170.3,144.7c1,0.9,1.9,2.7,3.2,3.3c1-0.1,1.5-1.1,2.5-1.4c3.1-0.9,6.2,0.2,8.7-1.7
			c1.7-1.3,4.9-4.8,0.4-6.2c-3-0.9-6-1.1-8.2-0.1C175,139.5,172.9,144.4,170.3,144.7"/>
	</defs>
	<clipPath id="SVGID_30_">
		<use xlink:href="#SVGID_29_"  style="overflow:visible;"/>
	</clipPath>
	<g class="st22">
		<defs>
			<rect id="SVGID_31_" x="-960.2" y="-366.2" width="1680" height="1205"/>
		</defs>
		<clipPath id="SVGID_32_">
			<use xlink:href="#SVGID_31_"  style="overflow:visible;"/>
		</clipPath>
		<rect x="165.3" y="132.9" class="st23" width="27.2" height="20.1"/>
	</g>
</g>
<g>
	<defs>
		<path id="SVGID_33_" d="M199.6,148c-0.2-0.1-0.5,0-0.7,0.1c-0.1,0.1-0.2,0.2-0.3,0.3c-0.1,0.3,0,0.6,0.1,0.9
			c0.4,0.8,1.3,1.3,2.1,1.5c0.2,0.1,0.5,0.1,0.7,0.1c0.3,0,0.9,0.1,1-0.3c0.1-0.3-0.1-0.6-0.3-0.8c-0.4-0.4-0.8-0.8-1.3-1.1
			c-0.2-0.1-0.4-0.3-0.7-0.4c-0.2-0.1-0.4-0.3-0.7-0.4C199.7,148,199.7,148,199.6,148"/>
	</defs>
	<clipPath id="SVGID_34_">
		<use xlink:href="#SVGID_33_"  style="overflow:visible;"/>
	</clipPath>
	<g class="st24">
		<defs>
			<rect id="SVGID_35_" x="-960.2" y="-366.2" width="1680" height="1205"/>
		</defs>
		<clipPath id="SVGID_36_">
			<use xlink:href="#SVGID_35_"  style="overflow:visible;"/>
		</clipPath>
		<rect x="193.6" y="143" class="st25" width="14" height="13"/>
	</g>
</g>
<g>
	<defs>
		<path id="SVGID_37_" d="M201.7,145.7c0.9,0.7,1.6,1.9,2.7,2.3c0.8-0.1,1.3-0.8,2.1-1c2.6-0.7,5.1,0.2,7.2-1.2
			c1.4-0.9,4-3.4,0.4-4.4c-2.5-0.7-5-0.8-6.7-0.1C205.5,142.1,203.8,145.5,201.7,145.7"/>
	</defs>
	<clipPath id="SVGID_38_">
		<use xlink:href="#SVGID_37_"  style="overflow:visible;"/>
	</clipPath>
	<g class="st26">
		<defs>
			<rect id="SVGID_39_" x="-960.2" y="-366.2" width="1680" height="1205"/>
		</defs>
		<clipPath id="SVGID_40_">
			<use xlink:href="#SVGID_39_"  style="overflow:visible;"/>
		</clipPath>
		<rect x="196.7" y="135.9" class="st27" width="24.1" height="17.1"/>
	</g>
</g>
<g>
	<defs>
		<path id="SVGID_41_" d="M204.7,132.9c-0.2-0.1-0.5,0-0.7,0.1c-0.1,0.1-0.2,0.2-0.3,0.3c-0.1,0.3,0,0.6,0.1,0.9
			c0.4,0.8,1.3,1.3,2.1,1.5c0.2,0.1,0.5,0.1,0.7,0.1c0.3,0,0.9,0.1,1-0.3c0.1-0.3-0.1-0.6-0.3-0.8c-0.4-0.4-0.8-0.8-1.3-1.1
			c-0.2-0.1-0.4-0.3-0.7-0.4c-0.2-0.1-0.4-0.3-0.7-0.4C204.7,132.9,204.7,132.9,204.7,132.9"/>
	</defs>
	<clipPath id="SVGID_42_">
		<use xlink:href="#SVGID_41_"  style="overflow:visible;"/>
	</clipPath>
	<g class="st28">
		<defs>
			<rect id="SVGID_43_" x="-960.2" y="-366.2" width="1680" height="1205"/>
		</defs>
		<clipPath id="SVGID_44_">
			<use xlink:href="#SVGID_43_"  style="overflow:visible;"/>
		</clipPath>
		<rect x="198.7" y="127.9" class="st29" width="14" height="13"/>
	</g>
</g>
<path class="st7" d="M140.5,43.4c0.3-0.4,0.6-0.9,0.7-1.1l0.9-1.5c0.3-0.6,0.6-1.2,1-2l0.1-0.3c0.9-2.2-0.2-4.6-2.3-5.5
	c-2.2-0.9-4.7,2.4-5.6,4.5l0,0.1c0-0.1-0.1-0.1-0.1-0.2l0-0.1c-0.9-2.2-3.4-5.3-5.6-4.4c-2.2,0.9-3.2,3.4-2.3,5.5l0.2,0.5
	c0.3,0.7,0.6,1.3,1,1.9l0.7,1.2c0.2,0.3,0.5,0.8,0.7,1.2l0.2,0.2c0,0,0.6,1,1.2,1.8c2,2.5,2.9,3.9,3.8,3.9c0,0,0.1,0,0.1,0h0
	c0,0,0.1,0,0.1,0c0.9,0,2-1.4,3.8-3.9c0.6-0.8,1.2-1.8,1.2-1.8v0L140.5,43.4z"/>
<g>
	<defs>
		<path id="SVGID_45_" d="M205.7,131.6c0.9,0.7,1.6,1.9,2.7,2.3c0.8-0.1,1.3-0.8,2.1-1c2.6-0.7,5.1,0.2,7.2-1.2
			c1.4-0.9,4-3.4,0.4-4.4c-2.5-0.7-5-0.8-6.7-0.1C209.5,127.9,207.8,131.4,205.7,131.6"/>
	</defs>
	<clipPath id="SVGID_46_">
		<use xlink:href="#SVGID_45_"  style="overflow:visible;"/>
	</clipPath>
	<g class="st30">
		<defs>
			<rect id="SVGID_47_" x="-960.2" y="-366.2" width="1680" height="1205"/>
		</defs>
		<clipPath id="SVGID_48_">
			<use xlink:href="#SVGID_47_"  style="overflow:visible;"/>
		</clipPath>
		<rect x="200.7" y="121.8" class="st31" width="24.1" height="17.1"/>
	</g>
</g>
<path class="st4" d="M37.6,50.1c-0.1-0.6-0.7-0.7-1-0.2c-0.7,1.2-1,3.1-1.2,4.4c-0.1,0.9-0.3,1.8-0.3,2.7c0,0-0.3,3.5-0.3,7.4
	c0,0.2,0,0.4,0,0.6c0,0.3-0.5,4.8-2.6,9.2c-0.2,0.4-0.4,0.7-0.5,1c-5,10.3-9.4,22.9-9.8,34.3c-0.6,17.3,6.5,31.4,11.8,47.5
	c9.3,28.4,6.2,57,6.2,86.3c0,10.3,0.1,19.2,5.7,28.2c0.4,0.7,0.9,1.4,1.4,2.1c1.2,0.1,2.4,0.2,3.6,0.2c23.1,0.9,43.3-5.1,62.5-14.1
	c4.1-1.9,7.1-3.5,9.1-4.5c4.7-2.4,9.3-5,13.9-7.6c0,0-9.9-67-13.9-75.3c-4.1-8.3-23.9-11.6-24.1-11.6c-2.5-0.3-5.1-0.6-8.1-1.2
	c-0.6-0.1-1.3-0.2-1.9-0.3c-2.6-0.3-5.2-0.7-7.7-1.4c-6.3-1.7-10.8-5.2-15.6-9.3c-4.4-3.8-8.4-8.1-11.6-13
	c-8.1-12.5-11.9-29.8-11.2-44.4c0.2-4.8,0.5-9.6,1.1-14.3c0.1-0.7,1-5.8,2.1-7.2c1.7-2,4.5-3,6.5-4.7c1-0.8,1.2-1.8,1.6-3
	c0.6-1.9,1.2-3.7,2.3-5.4c0.9-1.6,2.4-2.8,2.7-4.6c-2.5-1.2-4.9,3.8-5.8,5.2c-0.2,0.3-0.5,0.6-0.8,0.8c-1.8-1.3,0.9-11.2,1.4-12.5
	c0.3-0.8,1.1-3,0.7-4c-0.7-1.4-2,0.6-2.4,1.3c-1.1,1.8-2,3.7-2.9,5.5c-0.3,0.5-1.2,3.1-2.1,2.6c-1-0.5,0.1-4.2,0.3-5
	c0.2-0.7,1.7-3.8,1-4.4c-1.4-1.3-3.4,3.7-3.7,4.4c-0.5,1.1-1.1,4.8-2.6,4.8c-0.1-1.1,0.1-2,0.4-3.1c0.2-0.6,1.1-2.6,0.6-3.2
	c-0.8-1.2-2.5,3.2-2.7,3.9c-0.6,1.9-1,4-1.7,5.8c-0.3,0.7-0.5,0.5-0.5,0.5C37.4,53.1,37.7,51.4,37.6,50.1z"/>
<g>
	<path class="st32" d="M204.1,250c-0.1-0.5-0.2-0.8-0.5-1.1c-0.3-0.2-0.7-0.3-1.1-0.2c-0.4,0-2.4,0.8-2.8,1
		c-0.1,0.1-0.4,0.2-0.7,0.3c-0.5,0.2-1.1,0.4-1.4,0.5l-1.9,1.1c-0.7,0.3-1.4,0.8-2.2,1.2c-0.1,0.1-0.2,0.1-0.3,0.2L193,253l0,0
		c-0.2,0.1-0.3,0.5-0.4,0.7c0,0.2,0.1,0.5,0.2,0.7c0.4,0.5,1.1,0.7,1.7,0.7c0,0,0.1,0,0.1,0c0.6,0,1.2-0.2,1.8-0.5
		c0.2-0.1,0.5-0.2,0.7-0.3l0.1-0.1c0.2-0.1,0.3-0.2,0.5-0.3l1.1-0.6c1.2-0.5,3.7-1.4,4.2-1.6c0.4-0.2,0.7-0.5,0.9-0.7
		C204.1,250.9,204.2,250.5,204.1,250z"/>
	<g>
		<path class="st32" d="M180.2,233.6c0.2,0.1,0.4,0.1,0.6,0.1c0.6,0,1.2-0.3,1.6-0.9c0.5-0.7,0.6-1.4,0.6-2.2c0-0.1,0-0.2,0-0.3
			c0.1-0.8,0.2-2.1-1-2.4c-1.1-0.2-2.5,0-3.3,0.9c-0.5,0.6-0.6,1.8-0.6,2.5C178.3,232.2,178.9,233.2,180.2,233.6z"/>
		<path class="st32" d="M187.5,233.5L187.5,233.5c-0.4-0.3-1-0.4-1.7-0.3c-0.9,0-1.4,1-1.7,1.7l-0.1,0.1c-0.4,0.8-0.8,1.7-1.1,2.6
			c-0.3,0.7-0.5,1.5-0.9,2.2c-0.2,0.5-0.5,1.1-1,1.6c-0.2,0.2-0.3,0.3-0.6,0.3c-0.3-0.1-0.5-0.4-0.7-0.6c-1-1.5-1.6-3.1-2.1-4.5
			c-0.1-0.2-0.1-0.4-0.2-0.7c-0.1-0.1-0.1-0.3-0.2-0.5c0-0.1-0.1-0.2-0.1-0.3c0-0.2-0.1-0.3-0.2-0.5c-0.2-0.5-0.5-0.9-0.8-1.2
			c-0.3-0.3-0.8-0.4-1.5-0.4c-0.6,0-1.1,0.2-1.4,0.6c-0.3,0.4-0.5,0.8-0.4,1.4c0,0.2,0.1,0.3,0.1,0.4c0,0.1,0,0.1,0.1,0.2
			c0.6,2.2,1.5,4.5,2.7,7.1c0.4,0.8,0.8,1.6,1.2,2.4c0.2,0.5,0.5,0.9,0.8,1.4c0.1,0.1,0.1,0.2,0.2,0.3c0.2,0.3,0.4,0.7,0.6,0.9
			c0.7,0.7,1.5,1.1,2.4,1.1c0,0,0.1,0,0.1,0c1,0,1.8-0.4,2.5-1c0.7-0.6,1.2-1.4,1.4-2.4l0.6-2.8c0.6-2.2,1.3-4.3,2.1-6.4
			c0.2-0.5,0.4-1.1,0.5-1.7C188.2,234.3,188,233.8,187.5,233.5z"/>
	</g>
	<g>
		<path class="st32" d="M199.9,240.1c0.1,0,0.3,0,0.4,0c0.8-0.1,1.4-0.6,2-1.1c0.1-0.1,0.1-0.1,0.2-0.2c0.6-0.5,1.6-1.4,1-2.4
			c-0.6-0.9-1.8-1.8-2.9-1.7c-0.8,0.1-1.8,0.9-2.1,1.3c-0.5,0.7-0.9,1.8-0.3,3.1C198.6,239.7,199.2,240.1,199.9,240.1z"/>
		<path class="st32" d="M204.1,243.8c-0.1-0.5-0.4-0.9-0.9-1.4c-0.7-0.6-1.7-0.3-2.4,0l-0.2,0c-0.9,0.3-1.8,0.7-2.6,1.1
			c-0.7,0.3-1.4,0.7-2.2,1c-0.5,0.2-1.2,0.4-1.8,0.4c-0.3,0-0.5,0-0.6-0.3c-0.1-0.3-0.1-0.6-0.1-0.9c0.3-1.8,1.1-3.4,1.7-4.7
			c0.1-0.2,0.2-0.4,0.3-0.6c0.1-0.1,0.1-0.3,0.2-0.4c0-0.1,0.1-0.2,0.2-0.3c0.1-0.1,0.2-0.3,0.2-0.5c0.2-0.6,0.3-1,0.3-1.4
			c0-0.4-0.3-0.8-0.8-1.3c-0.4-0.4-0.9-0.6-1.4-0.6c-0.5,0-0.9,0.3-1.3,0.7c-0.1,0.1-0.2,0.2-0.2,0.4c0,0.1-0.1,0.1-0.1,0.2
			c-1.1,2-2.2,4.2-3.2,6.9c-0.3,0.8-0.6,1.7-0.9,2.5c-0.2,0.5-0.3,1-0.5,1.5c0,0.1-0.1,0.2-0.1,0.3c-0.1,0.4-0.2,0.8-0.2,1.1
			c0,1.1,0.4,1.9,1,2.5c0.7,0.6,1.5,1,2.5,1c0.1,0,0.2,0,0.2,0c0.8,0,1.6-0.2,2.4-0.7l2.4-1.5c1.9-1.1,3.9-2.1,6-3
			c0.5-0.2,1-0.5,1.5-0.9C204.1,244.8,204.2,244.3,204.1,243.8z"/>
	</g>
	<g>
		<path class="st32" d="M161.2,240.4c0.4,0,0.7-0.1,1.1-0.2c0.8-0.3,1.2-1.1,1.2-2c-0.1-0.8-0.5-1.5-1-2.1c-0.1-0.1-0.1-0.1-0.2-0.2
			c-0.5-0.6-1.2-1.7-2.3-1.2c-1,0.5-1.9,1.6-1.9,2.8c0,0.8,0.7,1.8,1.2,2.2C159.7,240,160.4,240.4,161.2,240.4z"/>
		<path class="st32" d="M166.5,252.5l-1.9-0.4c-1.6-0.4-3.2-0.9-4.6-1.5c0,0-0.1,0-0.4-0.2c-0.3-0.1-0.5-0.2-0.7-0.2
			c-0.4,0-0.6,0.2-0.8,0.5c-0.2,0.3-0.3,0.7-0.2,1.1c0,0.4,0.4,0.8,1.1,1.2c0.4,0.2,1.1,0.5,1.9,0.8l0.9,0.3l0.2,0.1
			c0.2,0,0.3,0.1,0.5,0.1c0.9,0.3,1.9,0.6,2.8,0.7c0.2,0,0.3,0,0.5,0.1c0.4,0.1,0.8,0.1,1.2,0.1l0.1,0c0.2,0,0.3,0,0.5,0
			c0.3,0,0.6,0,0.8-0.1c0.3-0.1,0.4-0.3,0.4-0.7c-0.1-0.4-0.3-0.7-0.5-1C167.7,253,167.2,252.6,166.5,252.5z"/>
		<path class="st32" d="M174.4,245.1l-1.5-2.4c-1.1-1.9-2.1-3.9-3-6c-0.2-0.5-0.5-1-0.9-1.5c-0.4-0.5-0.8-0.6-1.4-0.5
			c-0.5,0.1-0.9,0.4-1.4,0.9c-0.6,0.7-0.3,1.7,0,2.4l0,0.2c0.3,0.9,0.7,1.8,1.1,2.6c0.3,0.7,0.7,1.4,1,2.2c0.2,0.5,0.4,1.2,0.4,1.8
			c0,0.3,0,0.5-0.3,0.6c-0.3,0.1-0.6,0.1-0.9,0.1c-1.8-0.3-3.4-1.1-4.7-1.7c-0.2-0.1-0.4-0.2-0.6-0.3c-0.1-0.1-0.3-0.1-0.4-0.2
			c-0.1,0-0.2-0.1-0.3-0.2c-0.1-0.1-0.3-0.2-0.5-0.2c-0.6-0.2-1-0.3-1.4-0.3c-0.4,0-0.8,0.3-1.3,0.8c-0.4,0.4-0.6,0.9-0.6,1.4
			c0,0.5,0.3,0.9,0.7,1.3c0.1,0.1,0.2,0.2,0.4,0.2c0.1,0,0.1,0.1,0.2,0.1c2,1.1,4.2,2.2,6.9,3.2c0.8,0.3,1.7,0.6,2.5,0.9
			c0.5,0.2,1,0.3,1.5,0.5c0.1,0,0.2,0.1,0.3,0.1c0.4,0.1,0.8,0.2,1.1,0.2c1.1,0,1.9-0.4,2.5-1c0.6-0.7,1-1.5,1-2.5
			C175.1,246.8,174.9,245.9,174.4,245.1z"/>
	</g>
</g>
</svg>
