<svg class="fill-current text-white stroke-current" xmlns="http://www.w3.org/2000/svg" xmlns:xlink="http://www.w3.org/1999/xlink" viewBox="0 0 97.4 57.5"><g id="Layer_1"><defs><path id="SVGID_49_" d="M-1594.4-1411.5h640v540h-640z"/></defs><clipPath id="SVGID_2_"><use xlink:href="#SVGID_49_" overflow="visible"/></clipPath><path d="M205.2-633.8c-26.6-11.2-53.8-8.9-81.3 7.1l-82.2 52.1C21.3-562.7-.2-559.5-24.1-565c-23.4-5.5-40.6-17.8-52.3-37.9-15.2-26.1-33.8-62.3-54.9-107.4-17.6-39.5-31.5-67.8-42.5-86.7-23.6-40.3-49.9-89.8-78.1-147.2-27.2-55.9-48-96-63.4-122.3-49.3-84.3-112.7-153-188.3-204.1-75.4-51-160.6-85.7-254.2-103.2-75.7-11-161.6-4.9-255.3 18.3-93.3 23.1-171.7 53-233 88.9-61.3 35.9-125.4 87.9-190.2 154.6-65.3 67.1-114.3 139.8-145.5 216.1-32.6 79.4-30.5 151.7 6.3 214.6 13.4 22.9 37.3 43.2 70.9 60.3 36.2 18.5 66.5 21 89.9 7.3 52.4-30.7 99.3-79.4 139.6-145.1 27.6-48 54-88.9 78.5-121.8 23.5-31.5 51.6-56.9 83.6-75.6 112.7-65.9 206.4-94.3 278.5-84.3 17 2.4 33.8 7.7 50.4 15.6 1.3.6 2.4 1.2 3.6 1.8 7.3 3.7 14.6 7.9 21.8 12.7 21 14.8 35.8 33.9 49.2 58.7 5.4 9.9 14 18.4 18.3 28.8 14.2 34.9-28.4 60.8-51.5 77.6-17.4 12.7-117.4 57.5-125.3 60.7l.1.2c-24.2 9.9-46.4 20.3-65.5 31.5-81.4 47.7-154.6 105-217.4 170.6-62.8 65.4-113.3 136-150.2 210.1-31.9 68.6-49.4 137.3-52 204.2-2.6 67.9 13.5 132.2 48 191.2 78.9 134.7 182 213.7 306.5 234.8 123.4 20.9 250.7-6.4 378.4-81.1 77.1-45.1 155.7-107 233.4-183.8 72.8-71.9 123.6-145.4 151.3-218.8 64.8 25.7 125.3 35.2 180 28 58.4-7.7 127.6-34.7 205.7-80.4 42.9-25.1 80.4-68.6 111.4-129 32.3-63.2 34.1-120.2 5.1-169.6-16.1-27.5-36.8-46.7-61.6-57.1z" clip-path="url(#SVGID_2_)" fill="#e5ad23"/><path d="M7.6-505.2c-18.9-8-38.1-6.3-57.5 5.1l-58.1 36.9c-14.4 8.4-29.7 10.7-46.6 6.8-16.6-3.9-28.7-12.6-37-26.8-10.8-18.4-23.9-44.1-38.9-76-12.5-27.9-22.3-48-30.1-61.3-16.7-28.5-35.3-63.6-55.3-104.1-19.3-39.6-33.9-67.9-44.9-86.6-34.8-59.8-79.7-108.4-133.2-144.6-53.3-36.1-113.7-60.6-179.9-73-53.6-7.8-114.4-3.5-180.6 13-66 16.4-121.5 37.5-164.9 62.9-43.4 25.4-88.7 62.2-134.6 109.4-46.2 47.5-80.9 98.9-103 152.9-23.1 56.2-21.6 107.3 4.5 151.9 9.5 16.2 26.4 30.6 50.2 42.7 25.6 13.1 47.1 14.8 63.6 5.1 37.1-21.7 70.3-56.2 98.8-102.7 19.5-33.9 38.2-62.9 55.5-86.2 16.6-22.3 36.5-40.3 59.2-53.5 79.7-46.7 146-66.7 197.1-59.6 12.1 1.7 23.9 5.4 35.6 11 .9.4 1.7.9 2.6 1.3 5.2 2.6 10.3 5.6 15.4 9 14.8 10.5 25.3 24 34.8 41.5 3.8 7 9.9 13 12.9 20.4 10.1 24.7-20.1 43-36.4 54.9-12.3 9-83.1 40.7-88.7 42.9l.1.1c-17.2 7-32.8 14.4-46.3 22.3-57.6 33.7-109.4 74.3-153.9 120.7-44.4 46.3-80.2 96.2-106.3 148.7-22.6 48.6-34.9 97.2-36.8 144.5-1.8 48 9.6 93.6 34 135.3 55.8 95.3 128.8 151.2 216.9 166.1 87.3 14.8 177.4-4.5 267.8-57.4 54.6-31.9 110.2-75.7 165.2-130.1 51.5-50.9 87.5-102.9 107.1-154.8 45.9 18.2 88.7 24.9 127.4 19.8 41.3-5.4 90.3-24.5 145.5-56.9 30.4-17.8 56.9-48.5 78.8-91.3 22.8-44.7 24.1-85.1 3.6-120-11.3-19.4-26-32.9-43.6-40.3z" clip-path="url(#SVGID_2_)" fill="#e5ad23"/><g><path class="st78" d="M97.3 46.4c-.1-1-.5-1.7-1.1-2.2-.6-.5-1.4-.7-2.3-.5-.7.1-5 1.6-5.8 2-.3.1-.9.3-1.6.6-1.1.4-2.3.8-3 1.2l-4.1 2.4c-1.5.7-3 1.6-4.6 2.5-.2.1-.5.3-.7.4l-.1.1c-.5.2-.7 1.1-.8 1.5 0 .5.1 1.1.5 1.6.8 1 2.4 1.4 3.6 1.5h.3c1.3 0 2.6-.5 3.8-1 .5-.2 1-.5 1.5-.7l.3-.2c.3-.3.7-.5 1-.7l2.2-1.2c2.5-1 7.8-3 8.7-3.3.8-.5 1.5-1 1.8-1.5.4-.6.6-1.4.4-2.5zM46.9 12.1c.4.1.8.2 1.2.2 1.3 0 2.5-.7 3.4-1.9 1-1.4 1.2-3 1.3-4.7v-.6c.1-1.7.4-4.5-2.1-5-2.2-.5-5.3 0-6.9 1.8-1.1 1.4-1.3 3.9-1.2 5.2.4 1.9 1.6 4.1 4.3 5z"/><path class="st78" d="M62.5 11.9c-.8-.5-2-.8-3.5-.7-1.9.1-2.9 2.1-3.7 3.6l-.2.3c-.9 1.8-1.6 3.7-2.3 5.5-.6 1.6-1.1 3.2-1.9 4.7-.5 1-1.2 2.3-2.1 3.3-.4.5-.7.7-1.3.5-.6-.2-1.1-.8-1.4-1.2-2.2-3.1-3.4-6.6-4.4-9.6-.1-.5-.3-.9-.5-1.4l-.3-.9c-.1-.2-.1-.4-.2-.6-.1-.3-.2-.7-.3-1-.5-1.1-1.1-2-1.7-2.5-.7-.6-1.7-.8-3.1-.8-1.3.1-2.3.5-2.9 1.3-.7.8-1 1.8-.9 2.9 0 .3.1.6.2.9.1.2.1.3.1.5 1.2 4.6 3.1 9.5 5.6 15 .8 1.7 1.6 3.4 2.4 5 .5 1 1 2 1.6 3l.3.6c.4.7.8 1.5 1.3 2 1.6 1.5 3.2 2.3 5 2.3h.3c2-.1 3.8-.8 5.2-2.1 1.4-1.3 2.4-3 2.9-5l1.3-5.8c1.2-4.5 2.7-9 4.5-13.4.4-1 .9-2.2 1-3.5.4-1.4 0-2.2-1-2.9zM88.6 25.7c.3 0 .5 0 .8-.1 1.7-.3 3-1.3 4.2-2.4.1-.1.3-.3.5-.4 1.3-1.1 3.4-2.9 2.1-5-1.2-1.9-3.7-3.7-6.1-3.5-1.8.1-3.7 1.8-4.5 2.8-1.1 1.4-1.9 3.9-.5 6.4.5 1.4 1.9 2.2 3.5 2.2z"/><path class="st78" d="M97.3 33.5c-.2-1-.9-2-2-3-1.4-1.2-3.5-.6-5.1-.1l-.3.1c-1.9.6-3.7 1.5-5.5 2.3-1.5.7-3 1.4-4.6 2-1 .4-2.4.8-3.9.8-.7 0-1 0-1.3-.5-.3-.6-.2-1.3-.1-1.8.6-3.8 2.2-7.1 3.7-9.8.2-.4.4-.9.6-1.3.1-.3.3-.6.4-.9l.3-.6c.2-.3.4-.6.5-1 .4-1.2.6-2.2.5-3 0-.9-.5-1.7-1.6-2.7-.9-.8-1.9-1.2-3-1.2-1 .1-1.9.5-2.7 1.4-.2.2-.3.5-.5.8-.1.1-.1.3-.2.4-2.4 4.2-4.6 8.9-6.6 14.6-.6 1.7-1.2 3.5-1.8 5.3-.3 1-.7 2.1-1 3.2 0 .2-.1.5-.1.7-.2.8-.5 1.6-.5 2.4 0 2.3.8 4.1 2.1 5.3 1.5 1.4 3.3 2.1 5.2 2.2h.5c1.8 0 3.5-.5 5.1-1.4l5-3.2c4-2.4 8.3-4.5 12.6-6.3 1-.4 2.2-1 3.2-1.8s1.4-1.8 1.1-2.9z"/><g><path class="st78" d="M7 26.3c.8 0 1.6-.1 2.4-.5 1.7-.7 2.6-2.3 2.4-4.3-.1-1.8-1.1-3.1-2.1-4.4-.1-.1-.2-.3-.4-.5-1-1.4-2.6-3.6-4.8-2.4-2 1.1-4 3.5-4 5.9 0 1.8 1.5 3.8 2.5 4.7 1 .8 2.4 1.5 4 1.5zM18.3 51.7l-4-.9c-3.4-.9-6.7-2-9.7-3.2 0 0-.2-.1-.9-.4-.6-.3-1.1-.4-1.4-.3-.8 0-1.3.4-1.7 1-.5.6-.6 1.4-.6 2.4 0 .8.8 1.6 2.4 2.5.9.5 2.3 1 4 1.6l1.8.6.4.2c.3.1.7.2 1 .3 1.9.6 3.9 1.2 6 1.5.3 0 .7.1 1 .2.8.1 1.6.3 2.4.3h1.2c.6 0 1.3 0 1.8-.2.6-.2.9-.7.8-1.4-.2-.8-.6-1.5-1.2-2-.8-1.1-1.9-1.8-3.3-2.2z"/><path class="st78" d="M34.9 36.2l-3.2-5c-2.4-4-4.5-8.3-6.3-12.6-.4-1-1-2.2-1.8-3.2-.8-.9-1.7-1.3-2.9-1-1 .2-2 .9-3 2-1.2 1.4-.6 3.5-.1 5.1l.1.3c.6 1.9 1.5 3.7 2.3 5.5.7 1.5 1.4 3 2 4.6.4 1 .8 2.4.8 3.9 0 .7 0 1-.5 1.3-.6.3-1.3.2-1.8.1-3.8-.6-7.1-2.2-9.8-3.7-.4-.2-.9-.4-1.3-.6-.3-.1-.6-.3-.9-.4l-.6-.3c-.3-.2-.6-.4-1-.5-1.2-.4-2.2-.6-3-.5-.9.1-1.8.6-2.7 1.7-.8.9-1.2 1.9-1.2 3 .1 1 .5 1.9 1.4 2.7.2.2.5.3.8.5.1.1.3.1.4.2 4.2 2.4 8.9 4.6 14.6 6.6 1.7.6 3.5 1.2 5.3 1.8 1 .3 2.1.7 3.2 1 .2.1.4.1.7.2.8.2 1.6.5 2.4.5 2.3 0 4.1-.8 5.3-2.1 1.4-1.5 2.1-3.3 2.2-5.2.1-2.2-.4-4.1-1.4-5.9z"/></g></g></g></svg>