<?xml version="1.0" encoding="utf-8"?>
<!-- Generator: Adobe Illustrator 23.0.2, SVG Export Plug-In . SVG Version: 6.00 Build 0)  -->
<svg version="1.1" xmlns="http://www.w3.org/2000/svg" xmlns:xlink="http://www.w3.org/1999/xlink" x="0px" y="0px"
	 viewBox="0 0 1015.7 179.3" style="enable-background:new 0 0 1015.7 179.3;" xml:space="preserve">
<style type="text/css">
	.st0{fill:#3C2F54;}
	.st1{fill:#574672;}
	.st2{fill:#BE1E2D;}
	.st3{fill:#E5AD23;}
</style>
<g id="Layer_3">
</g>
<g id="Layer_1">
	<path class="st0" d="M893.1,58.5c-6.3-11.3-14.3-19.6-23.6-24.7c-9.3-5.1-20.8-7.7-34.2-7.7c-6.9,0-14.7,1.6-23.1,4.8
		c-8.5,3.2-14.6,7.1-18.1,11.6c-7.4,9.5-13.3,20.5-15.9,32.4c-2.8,12.3-1.2,24,2.4,35.9c1.1,3.6,2.4,7.1,4.1,10.5
		c4.5,9.1,11.7,16.4,20.2,21.8c10,6.3,19.9,9.6,29.6,9.6c21.8,0,44.2-10.9,55.2-30.3c6.7-11.7,8.8-24.8,8.8-38.2
		c0-4-0.5-8.6-1.4-13.7C895.9,65.2,894.6,61.2,893.1,58.5z M865.1,103.9c-3.2,6.5-6.1,12.7-12.2,17c-6,4.3-13.8,5.8-20.9,4
		c-11-2.8-17.2-12.4-19.5-22.9c-1.4-6.4-1.7-9.1-1.7-10.2c0-7.9-0.8-16.7,2.2-24.2c2.7-6.7,8.5-12.2,15.3-14.5
		c4.6-1.6,9.6-1.7,14.3-0.6c2.4,0.6,4.7,1.5,6.9,2.8c1.7,1,4.2,1.6,5.6,3c3.6,3.6,7.3,6.8,9.2,11.8c1.9,5.1,2.9,10.4,2.9,15.6
		C867.2,99.5,865.6,102.9,865.1,103.9z"/>
	<path class="st0" d="M1013.1,103.3c-3.8-8.1-11.2-12.8-18.8-16.8c-9.9-5.3-20.4-8.1-31.2-11.1c-4.7-1.3-9-2.9-13-4.8
		c-5.6-2.4-8.5-5.2-8.5-8.3c0-2.6,1.8-4.7,5.5-6.4c8.8-3.9,21.1-3.4,29.8,0.7c7,3.3,9.9,11.7,18.4,11.9c8.3,0.1,13.6-6.9,13.6-14.7
		c0-4.5-1.8-8.6-5.2-12.1c-3.3-3.4-7.6-6.7-12.6-9.6c-8.3-4.9-18-5.5-27.4-5.2c-9,0.3-17.9,1.7-26.5,4.4
		c-7.9,2.5-14.1,6.5-19.2,13.2c-3.8,5-5.8,10.2-5.8,15.4c0,8.4,2.3,15.6,6.8,21.4c4.4,5.7,10.2,10.4,17.2,13.8
		c14.1,6.5,30.1,8.1,43.3,16.5c2.2,1.4,4.5,3.1,5.2,5.7c2.9,9.9-20.3,9.5-25.3,9.5c-4.9,0-9.7-1.2-14.4-3.5
		c-4.6-2.3-7.9-5.7-9.9-10.5c-0.9-1.5-2.5-2.9-4.7-4.1c-2.2-1.1-4.5-1.7-6.7-1.7c-4.3,0-7.9,1.3-10.6,3.8c-2.7,2.5-4.1,5.9-4.1,10.1
		c0,8.5,6.6,15.8,12.9,20.8c6.6,5.2,14.8,8.3,23,9.8c7.7,1.4,15.6,1.5,23.4,1.1c7.3-0.3,14.4-0.8,21.3-3.4
		c15.9-5.9,29.9-24.4,24.7-41.9C1014.2,105.7,1013.7,104.4,1013.1,103.3z"/>
	<path class="st0" d="M764.4,28.9c-3.2-2-7.6-2.8-13.1-2.6c-7.3,0.4-11.3,9-14.2,14.5c-6.6,12.5-9.6,26.3-15.7,38.9
		c-2.2,4.6-4.7,9.1-8.2,12.8c-1.6,1.8-2.8,3-5.3,2.1c-2.3-0.8-4.1-2.9-5.5-4.8c-8-11.2-12.7-23.6-16.7-36.6c-0.9-3-2.1-5.9-3.1-8.9
		c-0.7-2-1-4.4-1.9-6.2c-2-4.2-4.2-7.4-6.5-9.4c-2.5-2.1-6.3-3-11.6-2.8c-4.7,0.2-8.4,1.8-11,4.7c-2.6,2.9-3.7,6.5-3.3,10.8
		c0.2,1.8,0.9,3.3,1.4,5.1c5.2,19.7,12.7,38.6,21.4,57.2c3,6.4,6.1,12.8,9.2,19.1c1.9,3.8,4,7.6,6.2,11.3c1.9,3.1,3.8,7.2,6.4,9.8
		c6.2,6,12.9,8.8,19.9,8.5c7.6-0.4,14.3-3.1,19.7-8c5.4-4.9,9.2-11.2,11.1-18.7l4.8-22.3c4.6-17.4,10.3-34.5,17.2-51.1
		c1.8-4.3,3.3-8.7,3.8-13.4C769.7,34.6,768.3,31.4,764.4,28.9z"/>
	<path class="st0" d="M653.2,129.9c-1.4-1.9-3.4-2.8-6-2.8h0l-7.9,0.3c-1.9,0-3.5-0.7-5-2c-1.4-1.3-2.1-2.9-2.1-4.8
		c0-2.4,0.2-5.7,0.6-9.8c0.4-3.5,0.6-6,0.6-7.8c0-3.8,0.2-8.3,0.6-13.5c0.4-5,0.6-8.7,0.6-11.1c0-7.9-1.6-15.3-4.8-22
		c-3.2-6.6-7.7-12.6-13.5-17.6c-4.8-3.9-11.1-7-18.6-9.2c-7.5-2.2-14.2-3.3-19.9-3.3s-12.4,1-19.6,3c-7.3,2-13.7,5.1-19,9.2
		c-5.5,4.2-8.3,9.4-8.3,15.3c0,2.2,0.8,4.5,2.5,7.1c1.8,2.8,3.8,4.2,6,4.2c4.9,0,10.2-1.5,15.7-4.4c3.9-2.2,7.4-4,10.5-5.3
		c2.9-1.2,5.9-1.9,8.9-1.9c10.6,0,18.3,1.9,22.9,5.5c1.1,0.9,2.1,1.9,2.9,3.1c0.1,0.1,0.1,0.2,0.2,0.3c0.4,0.6,0.7,1.1,1,1.8
		c0.9,1.9,1.1,3.8,1,6.1c0,0.9,0.2,1.9,0.1,2.8c-0.4,3-4.5,3.1-6.8,3.3c-1.7,0.2-10.6-0.8-11.2-0.9v0c-2.1-0.3-4.1-0.5-5.9-0.5
		c-7.6,0-15.1,1-22.2,3c-7.1,2-13.5,4.9-19.1,8.5c-5,3.5-9.1,7.6-12,12.1c-3,4.6-4.5,9.8-4.5,15.3c0,12.6,4,22.4,11.8,28.9
		c7.8,6.5,17.8,9.8,29.8,9.8c7.2,0,15.3-1.1,23.8-3.3c8-2,14.6-5.1,19.5-9.1c3.5,4.5,7.3,7.6,11.4,9.3c4.4,1.9,10.3,2.8,17.7,2.8
		c4,0,8.4-1.5,13.1-4.5c4.8-3.1,7.3-7,7.3-11.6C655.2,133.9,654.5,131.7,653.2,129.9z M601.6,116.3c-7.4,4.3-13.8,7.3-19,8.9
		c-5.3,1.6-12,2.5-20,2.5c-2.9,0-5.7-1.1-8.5-3.4c-2.7-2.2-4-4.8-4-8c0-6.6,2.7-11.1,8.3-13.7c5.8-2.7,12.6-4.1,20.1-4.1
		c6.4,0,14.5,2.3,24.3,6.8C602.6,109.8,602.2,113.4,601.6,116.3z"/>
	<path class="st0" d="M505.4,69.2c-3-7.1-7-13.5-11.8-19c-5.9-6.7-14.7-12.7-25.9-18c-12-5.7-25.4-6.8-38.5-7.6
		c-12.4-0.8-26-2.8-37.8,2.4c-5.8,2.6-10,7.2-10,13.8c0,3.6,1.7,6.6,4.8,8.6c2,1.3,4.2,2,6.4,2.3c0.4,3.3,0.6,5.6,0.8,6.6l0.1,1.5
		c0,0.4,0.1,0.7,0.2,1c0.9,6.9,1.6,13.8,2.1,20.7c0.5,7.3,0.8,5.7,0.8,16.8c0,8.3-0.3,16.3-1,23.9c-2.4,0.2-4.7,1-6.8,2.3
		c-3.1,2-4.8,5-4.8,8.6c0,5,2.5,11.6,14.4,15c7.8,2.2,16.6,3.3,26.2,3.3c12.5,0,23-1,31.3-3.1c8.4-2.1,15.2-4.9,20.3-8.2
		c4.9-3.2,10.1-7.5,15.5-12.6c5.5-5,9.9-11.7,13.3-19.8c3.3-8,4.1-14.4,4.1-21.2C509,79.6,508.5,76.5,505.4,69.2z M473.3,104.6
		c-4.4,6.1-10.3,10.8-17.6,14.2c-6.6,3.1-13.6,4.8-20.8,5.1c-0.6-0.1-1.1-0.1-1.2-0.1c-2.1-0.2-4.4-0.7-6.2-1.8
		c-1.6-1-1.2-4.4-1.3-6.1c-0.2-1.6-0.3-3.2-0.5-4.8l0,0c0.3-5.2,0.4-10.9,0.4-17.1c0-9.7-0.4-11.6-1.2-27.5
		c-0.3-3.9-0.4-6.7-0.4-8.6c0-0.4-0.1-0.8-0.1-1.2c0.1-1.4,0.4-2.8,1.2-4c1.1-1.6,3.8-1.8,5.9-1.8c5,0.3,9.5,0.9,13.5,1.6
		c6.7,1.3,12.5,3.4,17,6.2c2,1.2,3.8,2.6,5.4,4c3.2,3.1,7.7,7.4,10.4,14.7c2,5.3,1.8,12.3,1.1,14.7h0
		C477.8,96.9,476,100.9,473.3,104.6z"/>
	<path class="st1" d="M303.8,145c-0.4-3-1.6-5.4-3.6-6.9c-2-1.6-4.4-2.1-7.2-1.6c-2.3,0.3-15.7,5.1-18.3,6.3c-1,0.4-2.8,1.1-4.9,1.8
		c-3.3,1.2-7.1,2.5-9.3,3.6l-12.8,7.5c-4.7,2.3-9.5,4.9-14.3,7.9c-0.7,0.5-1.4,0.9-2.1,1.3l-0.6,0.4l0,0c-1.5,0.8-2.3,3.6-2.4,4.7
		c-0.2,1.6,0.4,3.5,1.5,4.9c2.4,3,7.4,4.4,11.2,4.6c0.3,0,0.6,0,0.9,0c4.1,0,8.2-1.6,11.8-3.2c1.5-0.7,3.1-1.4,4.5-2.2l0.9-0.5
		c1.1-0.9,2.1-1.6,3.2-2.2l7-3.9c7.9-3.1,24.4-9.3,27.3-10.2c2.6-1.5,4.5-3,5.7-4.6C303.8,150.9,304.2,148.4,303.8,145z"/>
	<g>
		<path class="st2" d="M146.5,37.8c1.3,0.4,2.6,0.6,3.9,0.6c4,0,7.8-2,10.6-5.9c3.2-4.5,3.7-9.4,3.9-14.6c0-0.6,0.1-1.2,0.1-1.9
			c0.4-5.2,1.1-13.9-6.4-15.5c-7-1.5-16.6,0-21.4,5.7c-3.6,4.2-4.2,12.1-3.7,16.1C134.2,28,138,35,146.5,37.8z"/>
		<path class="st2" d="M195,37.2L195,37.2c-2.7-1.7-6.3-2.4-10.9-2.1c-5.8,0.3-9.1,6.6-11.4,11.1l-0.5,0.9c-2.9,5.5-5,11.4-7,17.2
			c-1.7,4.9-3.5,9.9-5.8,14.7c-1.5,3.1-3.6,7.1-6.7,10.4c-1.4,1.5-2.2,2.3-4,1.7c-1.9-0.6-3.4-2.5-4.3-3.8
			c-6.9-9.7-10.7-20.5-13.6-29.8c-0.5-1.5-1-2.9-1.5-4.3c-0.4-1-0.7-2-1.1-3c-0.2-0.6-0.4-1.3-0.6-1.9c-0.3-1.1-0.6-2.2-1-3.2
			c-1.6-3.5-3.4-6.1-5.4-7.8c-2.1-1.8-5.3-2.6-9.7-2.3c-3.9,0.2-7,1.5-9.2,3.9c-2.2,2.4-3.1,5.5-2.8,9.1c0.1,1,0.4,1.9,0.7,2.7
			c0.2,0.5,0.3,0.9,0.5,1.5c3.8,14.5,9.6,29.8,17.5,46.8c2.4,5.2,5,10.5,7.6,15.6c1.5,3.1,3.3,6.2,5.1,9.3c0.4,0.6,0.7,1.2,1.1,1.9
			c1.2,2.1,2.5,4.5,4.2,6.2c4.9,4.7,10.1,7.1,15.5,7.1c0.3,0,0.6,0,1,0c6.3-0.3,11.8-2.6,16.4-6.6c4.5-4,7.6-9.2,9.2-15.5l3.9-18.2
			c3.7-14.2,8.4-28.2,14-41.7c1.3-3.2,2.7-7,3.1-11C199.5,41.9,198.2,39.2,195,37.2z"/>
	</g>
	<g>
		<path class="st1" d="M276.4,80.2c0.8,0,1.7-0.1,2.6-0.2c5.4-0.9,9.3-4.1,13.1-7.5c0.4-0.4,0.9-0.8,1.5-1.3c4-3.4,10.6-9,6.4-15.5
			c-3.9-6-11.7-11.7-19.2-11.1c-5.5,0.5-11.5,5.6-14,8.8c-3.5,4.4-5.8,12-1.7,20C267.3,77.8,271.4,80.2,276.4,80.2z"/>
		<path class="st1" d="M303.7,104.4c-0.7-3-2.8-6.2-6.2-9.2c-4.3-3.9-11-1.8-16-0.2l-1,0.3c-6,1.8-11.6,4.5-17.1,7.2
			c-4.7,2.2-9.5,4.5-14.5,6.3c-3.3,1.1-7.6,2.5-12.1,2.6c-2,0.1-3.2,0-4-1.7c-0.9-1.8-0.6-4.1-0.3-5.8c2-11.7,6.9-22.1,11.5-30.7
			c0.7-1.4,1.4-2.8,2-4.1c0.4-0.9,0.9-1.9,1.3-2.8c0.3-0.6,0.6-1.2,1-1.8c0.6-1,1.2-2,1.5-3c1.3-3.6,1.9-6.8,1.7-9.3
			c-0.2-2.8-1.9-5.6-5.2-8.5c-2.9-2.6-6-3.9-9.3-3.7c-3.3,0.2-6.1,1.7-8.4,4.5c-0.6,0.8-1,1.6-1.4,2.4c-0.2,0.4-0.4,0.9-0.7,1.4
			c-7.5,13-14.3,27.8-20.7,45.4c-2,5.4-3.9,11-5.7,16.4c-1.1,3.3-2.1,6.7-3,10.1c-0.2,0.7-0.4,1.4-0.6,2.1c-0.7,2.3-1.4,5-1.4,7.4
			c0.1,7.2,2.4,12.8,6.7,16.6c4.7,4.2,10.2,6.6,16.2,6.9c0.5,0,1.1,0,1.6,0c5.5,0,10.8-1.5,15.9-4.5l15.6-10.1
			c12.6-7.4,25.9-14,39.4-19.6c3.2-1.3,6.9-3,10-5.6C303.5,111,304.5,108.1,303.7,104.4z"/>
	</g>
	<g>
		<path class="st3" d="M21.9,82c2.4,0,4.9-0.5,7.5-1.6c5.2-2.2,8.1-7.2,7.6-13.4c-0.4-5.5-3.3-9.6-6.5-13.7c-0.3-0.4-0.7-1-1.1-1.5
			c-3.1-4.2-8.2-11.3-14.9-7.6C8.2,47.6,1.9,55,1.9,62.5c0,5.5,4.7,11.9,7.7,14.7C12.4,79.8,16.8,82,21.9,82z"/>
		<path class="st3" d="M57.1,161.4l-12.4-2.7c-10.6-2.8-20.8-6.2-30.3-10c-0.1,0-0.7-0.2-2.9-1.2c-1.9-0.8-3.4-1.1-4.5-1.1
			c-2.4,0.1-4.2,1.2-5.4,3.1c-1.1,1.8-1.7,4.3-1.5,7.5c0.1,2.5,2.5,5.1,7.4,7.9c2.9,1.6,7.1,3.3,12.4,5l5.8,1.8l1.1,0.5
			c1.1,0.3,2.1,0.6,3.2,0.9c6,1.8,12.2,3.6,18.6,4.6c1,0.2,2.1,0.3,3.1,0.5c2.5,0.4,5.1,0.8,7.6,1l0.7,0c1,0,2.1,0.1,3.3,0.1
			c2,0,4-0.1,5.5-0.7c1.8-0.7,2.7-2.2,2.6-4.5c-0.8-2.4-2-4.6-3.6-6.4C64.9,164.7,61.3,162.5,57.1,161.4z"/>
		<path class="st3" d="M108.8,113L98.7,97.4c-7.4-12.6-14-25.9-19.6-39.4c-1.3-3.2-3-6.9-5.6-10c-2.5-3-5.3-3.9-9-3.1
			c-3,0.7-6.2,2.8-9.2,6.2c-3.9,4.3-1.8,11-0.2,16l0.3,1c1.8,6,4.5,11.6,7.2,17.1c2.2,4.7,4.5,9.5,6.3,14.5
			c1.1,3.3,2.5,7.6,2.6,12.1c0.1,2.1,0,3.2-1.7,4c-1.8,0.9-4.1,0.6-5.8,0.3c-11.7-2-22.1-6.9-30.7-11.5c-1.4-0.7-2.8-1.4-4.1-2
			c-0.9-0.4-1.9-0.9-2.8-1.3c-0.6-0.3-1.2-0.6-1.8-1c-1-0.6-2-1.2-3-1.5c-3.6-1.3-6.8-1.9-9.3-1.7c-2.8,0.2-5.6,1.9-8.5,5.2
			c-2.6,2.9-3.9,6-3.7,9.3c0.2,3.3,1.7,6.1,4.5,8.4c0.8,0.6,1.6,1,2.4,1.4c0.4,0.2,0.9,0.4,1.4,0.7c13,7.5,27.8,14.3,45.4,20.7
			c5.4,2,10.9,3.9,16.4,5.7c3.3,1.1,6.7,2.1,10.1,3c0.7,0.2,1.4,0.4,2.1,0.6c2.3,0.7,5,1.4,7.4,1.4c7.2-0.1,12.8-2.4,16.6-6.7
			c4.2-4.7,6.6-10.2,6.9-16.2C113.6,124.4,112.1,118.6,108.8,113z"/>
	</g>
</g>
</svg>
