<?xml version="1.0" encoding="utf-8"?>
<!-- Generator: Adobe Illustrator 22.1.0, SVG Export Plug-In . SVG Version: 6.00 Build 0)  -->
<svg version="1.1" xmlns="http://www.w3.org/2000/svg" xmlns:xlink="http://www.w3.org/1999/xlink" x="0px" y="0px"
	 viewBox="0 0 180 180" style="enable-background:new 0 0 180 180;" xml:space="preserve">
<style type="text/css">
	.st0{fill:none;stroke:#999999;stroke-width:0.25;stroke-miterlimit:10;}
	.st1{fill:#F7F9FA;}
	.st2{fill:#3C2F54;}
	.st3{fill:#EC1E27;}
	.st4{fill:#21B5AD;}
	.st5{fill:#BE1E2D;}
	.st6{fill:#C99C28;}
	.st7{fill:none;stroke:#C99C28;stroke-miterlimit:10;}
	.st8{fill:#574672;}
	.st9{fill:#FFFFFF;}
	.st10{fill:#36284A;}
	.st11{fill:#BE1E2D;stroke:#BE1E2D;stroke-width:12;stroke-miterlimit:10;}
	.st12{fill:#666666;}
	.st13{fill:#333333;}
	.st14{fill:#999999;}
	.st15{fill:#B3B3B3;}
	.st16{fill:#E5AD23;}
	.st17{fill:#DD5D36;}
	.st18{fill:#3BB7B3;}
	.st19{fill:#36C972;}
	.st20{fill:#6D3EFF;}
	.st21{fill:#37DDD1;}
	.st22{fill:#46E888;}
	.st23{fill:#FFCE00;}
	.st24{fill:#FF8017;}
	.st25{fill:#FF001F;}
	.st26{fill:#D30F22;}
	.st27{fill:#1EAD58;}
	.st28{clip-path:url(#SVGID_2_);fill:#3C2F54;}
	.st29{clip-path:url(#SVGID_2_);}
	.st30{clip-path:url(#SVGID_4_);fill:#3BB7B3;}
	.st31{clip-path:url(#SVGID_6_);fill:#46E888;}
	.st32{clip-path:url(#SVGID_6_);fill:#36C972;}
	.st33{clip-path:url(#SVGID_6_);}
	.st34{clip-path:url(#SVGID_8_);fill:#E5AD23;}
	.st35{clip-path:url(#SVGID_10_);fill:#DD5D36;}
	.st36{clip-path:url(#SVGID_12_);fill:#FF001F;}
	.st37{clip-path:url(#SVGID_12_);fill:#BE1E2D;}
	.st38{clip-path:url(#SVGID_12_);}
	.st39{clip-path:url(#SVGID_14_);fill:#6D3EFF;}
	.st40{clip-path:url(#SVGID_14_);}
	.st41{clip-path:url(#SVGID_16_);fill:#6D3EFF;}
	.st42{clip-path:url(#SVGID_16_);}
	.st43{clip-path:url(#SVGID_18_);fill:#37DDD1;}
	.st44{clip-path:url(#SVGID_20_);fill:#36C972;}
	.st45{clip-path:url(#SVGID_20_);fill:#46E888;}
	.st46{clip-path:url(#SVGID_20_);}
	.st47{clip-path:url(#SVGID_22_);fill:#FFCE00;}
	.st48{clip-path:url(#SVGID_24_);fill:#FF8017;}
	.st49{clip-path:url(#SVGID_26_);fill:#BE1E2D;}
	.st50{clip-path:url(#SVGID_26_);fill:#FF001F;}
	.st51{clip-path:url(#SVGID_26_);}
	.st52{clip-path:url(#SVGID_44_);}
	.st53{clip-path:url(#SVGID_46_);fill:#3BB7B3;}
	.st54{clip-path:url(#SVGID_48_);fill:#46E888;}
	.st55{clip-path:url(#SVGID_48_);}
	.st56{clip-path:url(#SVGID_50_);fill:#E5AD23;}
	.st57{clip-path:url(#SVGID_52_);}
	.st58{opacity:0.53;clip-path:url(#SVGID_54_);}
	.st59{opacity:0.53;}
	.st60{clip-path:url(#SVGID_54_);}
	.st61{clip-path:url(#SVGID_60_);fill:#3BB7B3;}
	.st62{opacity:0.61;clip-path:url(#SVGID_60_);}
	.st63{opacity:0.61;}
	.st64{clip-path:url(#SVGID_60_);}
	.st65{clip-path:url(#SVGID_60_);fill:none;}
	.st66{clip-path:url(#SVGID_60_);fill:#37DDD1;}
	.st67{fill:none;}
	.st68{opacity:0.82;}
	.st69{clip-path:url(#SVGID_68_);}
	.st70{clip-path:url(#SVGID_70_);}
	.st71{clip-path:url(#SVGID_72_);fill:#37DDD1;}
	.st72{clip-path:url(#SVGID_74_);fill:#36C972;}
	.st73{clip-path:url(#SVGID_74_);}
	.st74{clip-path:url(#SVGID_76_);fill:#E5AD23;}
	.st75{clip-path:url(#SVGID_76_);}
	.st76{clip-path:url(#SVGID_78_);fill:#FFCE00;}
	.st77{clip-path:url(#SVGID_80_);}
	.st78{fill:none;stroke:#EC1E27;stroke-width:3;stroke-linecap:round;stroke-miterlimit:10;}
	.st79{fill:#86828E;}
	.st80{fill:none;stroke:#FFFFFF;stroke-width:2;stroke-linecap:round;stroke-linejoin:round;stroke-miterlimit:10;}
	.st81{fill:none;stroke:#EC1E27;stroke-width:4;stroke-linecap:round;stroke-miterlimit:10;}
	.st82{fill:none;stroke:#EC1E27;stroke-width:2;stroke-linecap:round;stroke-miterlimit:10;}
	.st83{fill:none;stroke:#EC1E27;stroke-width:2;stroke-linecap:round;stroke-linejoin:round;stroke-miterlimit:10;}
	.st84{fill:#0066B2;}
	.st85{fill:#F9A533;}
	.st86{fill:#C0C2C4;}
	.st87{fill:#AA1A2B;}
	.st88{opacity:0.23;fill:#D0D9D9;}
	.st89{fill-rule:evenodd;clip-rule:evenodd;fill:#462F4E;}
	.st90{fill-rule:evenodd;clip-rule:evenodd;fill:#D30F22;}
	.st91{fill-rule:evenodd;clip-rule:evenodd;fill:#BE1E2D;}
	.st92{fill-rule:evenodd;clip-rule:evenodd;fill:#FF2630;}
	.st93{fill-rule:evenodd;clip-rule:evenodd;fill:#EC1E27;}
	.st94{fill-rule:evenodd;clip-rule:evenodd;fill:#6D3EFF;}
	.st95{fill-rule:evenodd;clip-rule:evenodd;fill:#FFFFFF;}
	.st96{clip-path:url(#SVGID_84_);}
	.st97{clip-path:url(#SVGID_86_);fill:#3C2F54;}
	.st98{clip-path:url(#SVGID_88_);}
	.st99{clip-path:url(#SVGID_90_);fill:#3C2F54;}
	.st100{clip-path:url(#SVGID_92_);}
	.st101{clip-path:url(#SVGID_94_);fill:#3C2F54;}
	.st102{clip-path:url(#SVGID_96_);}
	.st103{clip-path:url(#SVGID_98_);fill:#3C2F54;}
	.st104{clip-path:url(#SVGID_100_);}
	.st105{clip-path:url(#SVGID_102_);fill:#3C2F54;}
	.st106{clip-path:url(#SVGID_104_);}
	.st107{clip-path:url(#SVGID_106_);fill:#3C2F54;}
	.st108{clip-path:url(#SVGID_108_);}
	.st109{clip-path:url(#SVGID_110_);fill:#3C2F54;}
	.st110{clip-path:url(#SVGID_112_);}
	.st111{clip-path:url(#SVGID_114_);fill:#3C2F54;}
	.st112{clip-path:url(#SVGID_116_);}
	.st113{clip-path:url(#SVGID_118_);fill:#3C2F54;}
	.st114{clip-path:url(#SVGID_120_);}
	.st115{clip-path:url(#SVGID_122_);fill:#3C2F54;}
	.st116{clip-path:url(#SVGID_124_);}
	.st117{clip-path:url(#SVGID_126_);fill:#3C2F54;}
	.st118{clip-path:url(#SVGID_128_);}
	.st119{clip-path:url(#SVGID_130_);fill:#3C2F54;}
	.st120{fill-rule:evenodd;clip-rule:evenodd;fill:#958EA2;}
	.st121{fill-rule:evenodd;clip-rule:evenodd;fill:#E5AD23;}
</style>
<g id="Layer_2">
</g>
<g id="Layer_1">
	<rect class="st1" width="180" height="180"/>
	<g>
		<defs>
			<rect id="SVGID_7_" x="-392.7" y="-981.8" width="640" height="540"/>
		</defs>
		<clipPath id="SVGID_2_">
			<use xlink:href="#SVGID_7_"  style="overflow:visible;"/>
		</clipPath>
		<path style="clip-path:url(#SVGID_2_);fill:#E5AD23;" d="M639.7-557.3c-43.5-92.9-128.5-147.2-216-193.7
			c-114.3-60.8-235.1-93.6-359.1-127.6C10.5-893.4-39.6-911.7-85-933.3c-64.9-27.5-97.8-59.8-97.8-96.1c0-30.2,20.9-54.2,63.8-73.3
			c101.5-45.1,242.6-38.8,343.1,8c80.5,37.5,114.2,134.9,212.1,136.5c95.1,1.6,156.9-79,156.9-169c0-51.8-20.2-98.9-60-139.9
			c-37.9-39-87.3-76.6-145.6-111.1c-95.2-56.3-206.9-63.6-315.5-60.4c-103.5,3-206.5,20.1-305.4,50.8
			c-91.5,28.4-162.1,74.3-221.1,151.5c-44.3,58.1-66.8,117.8-66.8,177.6c0,96.7,26.4,179.6,78.4,246.2
			c51.2,65.7,117.7,119.3,198.3,159.5c162.2,74.8,346.4,93.1,499,189.5c25.5,16.1,51.3,36.2,59.7,65.1
			c33,113.6-233.9,109.2-291.2,109.2c-55.9,0-111.6-13.7-165.6-40.7c-53.5-26.8-90.5-65.7-113.8-120.8c-10.3-17.8-28.4-33.7-53.8-47
			c-25.2-13.1-51.3-19.8-77.5-19.8c-49.6,0-90.6,14.6-121.7,43.3c-31.5,29.2-47.5,68.2-47.5,116.2c0,98.3,75.7,181.7,148.7,239.2
			c76.4,60.2,170.2,96.1,265.4,113.3c88.9,16,179.7,16.9,269.7,12.9c84.2-3.7,165.7-9.4,245.4-39
			c183.5-68.3,344.2-280.6,284.1-482.4C651.6-529.2,646.1-543.6,639.7-557.3z"/>
	</g>
	<path class="st88" d="M180,180V0h-9.9c-35,53.8-70.4,107.6-95.7,145.4L44.1,180H180z"/>
	<path class="st88" d="M0,0v112.1l93.3-78c9.3-8.9,20.3-20.7,31.9-34.1H0z"/>
	<g>
		<g>
			<defs>
				<path id="SVGID_83_" d="M-354.9,144c-0.4-0.2-0.9-0.1-1.2,0.3c-0.2,0.2-0.4,0.5-0.5,0.8c-0.2,0.7-0.1,1.4,0.2,2.1
					c0.7,1.8,2.2,3.1,3.7,3.6c0.4,0.1,0.8,0.2,1.2,0.2c0.5,0,1.5,0.1,1.8-0.6c0.2-0.6-0.2-1.3-0.5-1.8c-0.6-1-1.4-1.8-2.2-2.5
					c-0.4-0.3-0.8-0.6-1.2-0.9c-0.4-0.3-0.7-0.8-1.2-1C-354.8,144.1-354.8,144.1-354.9,144"/>
			</defs>
			<clipPath id="SVGID_4_">
				<use xlink:href="#SVGID_83_"  style="overflow:visible;"/>
			</clipPath>
			<g style="clip-path:url(#SVGID_4_);">
				<defs>
					<rect id="SVGID_85_" x="-1431.6" y="-406.5" width="1680" height="1205"/>
				</defs>
				<clipPath id="SVGID_6_">
					<use xlink:href="#SVGID_85_"  style="overflow:visible;"/>
				</clipPath>
			</g>
		</g>
		<g>
			<defs>
				<path id="SVGID_87_" d="M-349.6,141.4c1.4,1,2.6,3,4.4,3.6c1.4-0.1,2.1-1.2,3.4-1.5c4.2-1,8.4,0.2,11.8-1.8
					c2.4-1.5,6.6-5.3,0.6-6.8c-4.1-1-8.2-1.3-11-0.2C-343.2,135.7-346.1,141-349.6,141.4"/>
			</defs>
			<clipPath id="SVGID_8_">
				<use xlink:href="#SVGID_87_"  style="overflow:visible;"/>
			</clipPath>
			<g style="clip-path:url(#SVGID_8_);">
				<defs>
					<rect id="SVGID_89_" x="-1431.6" y="-406.5" width="1680" height="1205"/>
				</defs>
				<clipPath id="SVGID_10_">
					<use xlink:href="#SVGID_89_"  style="overflow:visible;"/>
				</clipPath>
			</g>
		</g>
		<g>
			<defs>
				<path id="SVGID_91_" d="M-346.8,119.8c-0.4-0.2-0.9-0.1-1.2,0.3c-0.2,0.2-0.4,0.5-0.5,0.8c-0.2,0.7-0.1,1.4,0.2,2.1
					c0.7,1.8,2.2,3.1,3.7,3.6c0.4,0.1,0.8,0.2,1.2,0.2c0.5,0,1.5,0.1,1.8-0.6c0.2-0.6-0.2-1.3-0.5-1.8c-0.6-1-1.4-1.8-2.2-2.5
					c-0.4-0.3-0.8-0.6-1.2-0.9c-0.4-0.3-0.7-0.8-1.2-1C-346.7,119.9-346.8,119.9-346.8,119.8"/>
			</defs>
			<clipPath id="SVGID_12_">
				<use xlink:href="#SVGID_91_"  style="overflow:visible;"/>
			</clipPath>
			<g class="st38">
				<defs>
					<rect id="SVGID_93_" x="-1431.6" y="-406.5" width="1680" height="1205"/>
				</defs>
				<clipPath id="SVGID_14_">
					<use xlink:href="#SVGID_93_"  style="overflow:visible;"/>
				</clipPath>
			</g>
		</g>
		<g>
			<defs>
				<path id="SVGID_95_" d="M-343.5,118.2c1.4,1,2.6,3,4.4,3.6c1.4-0.1,2.1-1.2,3.4-1.5c4.2-1,8.4,0.2,11.8-1.8
					c2.4-1.5,6.6-5.3,0.6-6.8c-4.1-1-8.2-1.3-11-0.2C-337.2,112.5-340,117.8-343.5,118.2"/>
			</defs>
			<clipPath id="SVGID_16_">
				<use xlink:href="#SVGID_95_"  style="overflow:visible;"/>
			</clipPath>
			<g class="st42">
				<defs>
					<rect id="SVGID_97_" x="-1431.6" y="-406.5" width="1680" height="1205"/>
				</defs>
				<clipPath id="SVGID_18_">
					<use xlink:href="#SVGID_97_"  style="overflow:visible;"/>
				</clipPath>
			</g>
		</g>
		<g>
			<defs>
				<path id="SVGID_99_" d="M-308.4,123.8c-0.4-0.1-0.9-0.1-1.2,0.2c-0.2,0.1-0.4,0.3-0.5,0.4c-0.2,0.4-0.1,0.8,0.2,1.2
					c0.7,1.1,2.2,1.8,3.7,2.1c0.4,0.1,0.8,0.1,1.2,0.1c0.5,0,1.5,0.1,1.8-0.3c0.2-0.3-0.2-0.8-0.5-1c-0.6-0.6-1.4-1-2.2-1.4
					c-0.4-0.2-0.8-0.4-1.2-0.5c-0.4-0.2-0.7-0.4-1.2-0.6C-308.3,123.9-308.4,123.9-308.4,123.8"/>
			</defs>
			<clipPath id="SVGID_20_">
				<use xlink:href="#SVGID_99_"  style="overflow:visible;"/>
			</clipPath>
			<g class="st46">
				<defs>
					<rect id="SVGID_101_" x="-1431.6" y="-406.5" width="1680" height="1205"/>
				</defs>
				<clipPath id="SVGID_22_">
					<use xlink:href="#SVGID_101_"  style="overflow:visible;"/>
				</clipPath>
			</g>
		</g>
		<g>
			<defs>
				<path id="SVGID_103_" d="M-306.1,123.6c1,0.9,1.9,2.7,3.2,3.3c1-0.1,1.5-1.1,2.5-1.4c3.1-0.9,6.2,0.2,8.7-1.7
					c1.7-1.3,4.9-4.8,0.4-6.2c-3-0.9-6-1.1-8.2-0.1C-301.5,118.3-303.5,123.2-306.1,123.6"/>
			</defs>
			<clipPath id="SVGID_24_">
				<use xlink:href="#SVGID_103_"  style="overflow:visible;"/>
			</clipPath>
			<g style="clip-path:url(#SVGID_24_);">
				<defs>
					<rect id="SVGID_105_" x="-1431.6" y="-406.5" width="1680" height="1205"/>
				</defs>
				<clipPath id="SVGID_26_">
					<use xlink:href="#SVGID_105_"  style="overflow:visible;"/>
				</clipPath>
			</g>
		</g>
		<g>
			<defs>
				<path id="SVGID_107_" d="M-303.4,105.7c-0.4-0.1-0.9-0.1-1.2,0.2c-0.2,0.1-0.4,0.3-0.5,0.4c-0.2,0.4-0.1,0.8,0.2,1.2
					c0.7,1.1,2.2,1.8,3.7,2.1c0.4,0.1,0.8,0.1,1.2,0.1c0.5,0,1.5,0.1,1.8-0.3c0.2-0.3-0.2-0.8-0.5-1c-0.6-0.6-1.4-1-2.2-1.4
					c-0.4-0.2-0.8-0.4-1.2-0.5c-0.4-0.2-0.7-0.4-1.2-0.6C-303.3,105.7-303.3,105.7-303.4,105.7"/>
			</defs>
			<clipPath id="SVGID_28_">
				<use xlink:href="#SVGID_107_"  style="overflow:visible;"/>
			</clipPath>
			<g style="clip-path:url(#SVGID_28_);">
				<defs>
					<rect id="SVGID_109_" x="-1431.6" y="-406.5" width="1680" height="1205"/>
				</defs>
				<clipPath id="SVGID_30_">
					<use xlink:href="#SVGID_109_"  style="overflow:visible;"/>
				</clipPath>
			</g>
		</g>
		<g>
			<defs>
				<path id="SVGID_111_" d="M-301.1,104.4c1.1,0.9,1.9,2.7,3.2,3.3c1-0.1,1.5-1.1,2.5-1.4c3.1-0.9,6.2,0.2,8.7-1.7
					c1.7-1.3,4.9-4.8,0.4-6.2c-3-0.9-6-1.1-8.2-0.1C-296.4,99.2-298.5,104.1-301.1,104.4"/>
			</defs>
			<clipPath id="SVGID_32_">
				<use xlink:href="#SVGID_111_"  style="overflow:visible;"/>
			</clipPath>
			<g style="clip-path:url(#SVGID_32_);">
				<defs>
					<rect id="SVGID_113_" x="-1431.6" y="-406.5" width="1680" height="1205"/>
				</defs>
				<clipPath id="SVGID_34_">
					<use xlink:href="#SVGID_113_"  style="overflow:visible;"/>
				</clipPath>
			</g>
		</g>
		<g>
			<defs>
				<path id="SVGID_115_" d="M-271.8,107.7c-0.2-0.1-0.5,0-0.7,0.1c-0.1,0.1-0.2,0.2-0.3,0.3c-0.1,0.3,0,0.6,0.1,0.9
					c0.4,0.8,1.3,1.3,2.1,1.5c0.2,0.1,0.5,0.1,0.7,0.1c0.3,0,0.9,0.1,1-0.3c0.1-0.3-0.1-0.6-0.3-0.8c-0.4-0.4-0.8-0.8-1.3-1.1
					c-0.2-0.1-0.4-0.3-0.7-0.4c-0.2-0.1-0.4-0.3-0.7-0.4C-271.7,107.7-271.8,107.7-271.8,107.7"/>
			</defs>
			<clipPath id="SVGID_36_">
				<use xlink:href="#SVGID_115_"  style="overflow:visible;"/>
			</clipPath>
			<g style="clip-path:url(#SVGID_36_);">
				<defs>
					<rect id="SVGID_117_" x="-1431.6" y="-406.5" width="1680" height="1205"/>
				</defs>
				<clipPath id="SVGID_38_">
					<use xlink:href="#SVGID_117_"  style="overflow:visible;"/>
				</clipPath>
			</g>
		</g>
		<g>
			<defs>
				<path id="SVGID_119_" d="M-269.8,105.4c0.9,0.7,1.6,1.9,2.7,2.3c0.8-0.1,1.3-0.8,2.1-1c2.6-0.7,5.1,0.2,7.2-1.2
					c1.4-0.9,4-3.4,0.4-4.4c-2.5-0.7-5-0.8-6.7-0.1C-265.9,101.7-267.6,105.1-269.8,105.4"/>
			</defs>
			<clipPath id="SVGID_40_">
				<use xlink:href="#SVGID_119_"  style="overflow:visible;"/>
			</clipPath>
			<g style="clip-path:url(#SVGID_40_);">
				<defs>
					<rect id="SVGID_121_" x="-1431.6" y="-406.5" width="1680" height="1205"/>
				</defs>
				<clipPath id="SVGID_42_">
					<use xlink:href="#SVGID_121_"  style="overflow:visible;"/>
				</clipPath>
			</g>
		</g>
		<g>
			<defs>
				<path id="SVGID_123_" d="M-266.7,92.6c-0.2-0.1-0.5,0-0.7,0.1c-0.1,0.1-0.2,0.2-0.3,0.3c-0.1,0.3,0,0.6,0.1,0.9
					c0.4,0.8,1.3,1.3,2.1,1.5c0.2,0.1,0.5,0.1,0.7,0.1c0.3,0,0.9,0.1,1-0.3c0.1-0.3-0.1-0.6-0.3-0.8c-0.4-0.4-0.8-0.8-1.3-1.1
					c-0.2-0.1-0.4-0.3-0.7-0.4c-0.2-0.1-0.4-0.3-0.7-0.4C-266.7,92.6-266.7,92.6-266.7,92.6"/>
			</defs>
			<clipPath id="SVGID_44_">
				<use xlink:href="#SVGID_123_"  style="overflow:visible;"/>
			</clipPath>
			<g class="st52">
				<defs>
					<rect id="SVGID_125_" x="-1431.6" y="-406.5" width="1680" height="1205"/>
				</defs>
				<clipPath id="SVGID_46_">
					<use xlink:href="#SVGID_125_"  style="overflow:visible;"/>
				</clipPath>
			</g>
		</g>
		<g>
			<defs>
				<path id="SVGID_127_" d="M-265.7,91.2c0.9,0.7,1.6,1.9,2.7,2.3c0.8-0.1,1.3-0.8,2.1-1c2.6-0.7,5.1,0.2,7.2-1.2
					c1.4-0.9,4-3.4,0.4-4.4c-2.5-0.7-5-0.8-6.7-0.1C-261.9,87.6-263.6,91-265.7,91.2"/>
			</defs>
			<clipPath id="SVGID_48_">
				<use xlink:href="#SVGID_127_"  style="overflow:visible;"/>
			</clipPath>
			<g class="st55">
				<defs>
					<rect id="SVGID_129_" x="-1431.6" y="-406.5" width="1680" height="1205"/>
				</defs>
				<clipPath id="SVGID_50_">
					<use xlink:href="#SVGID_129_"  style="overflow:visible;"/>
				</clipPath>
			</g>
		</g>
	</g>
</g>
</svg>
